<?xml version="1.0" encoding="UTF-8" standalone="no"?>
<!DOCTYPE svg PUBLIC "-//W3C//DTD SVG 1.1//EN" "http://www.w3.org/Graphics/SVG/1.1/DTD/svg11.dtd">
<svg width="100%" height="100%" viewBox="0 0 288 288" version="1.1" xmlns="http://www.w3.org/2000/svg" xmlns:xlink="http://www.w3.org/1999/xlink" xml:space="preserve" xmlns:serif="http://www.serif.com/" style="fill-rule:evenodd;clip-rule:evenodd;stroke-linejoin:round;stroke-miterlimit:1.41421;">
    <path d="M0,59.022L5.117,59.022C7.793,63.654 10.437,68.228 13.082,72.804C13.439,72.578 13.73,72.393 14.056,72.185C11.391,67.563 8.754,62.992 6.122,58.428C8.803,53.781 11.437,49.214 14.07,44.649C13.69,44.437 13.409,44.281 13.082,44.099C12.892,44.413 12.695,44.725 12.51,45.044C10.238,48.977 7.949,52.902 5.711,56.856C5.295,57.589 4.85,57.899 3.969,57.889L0,57.882L0,39.262L9.763,39.261C9.935,39.261 10.108,39.207 10.257,39.183L10.257,38.128L8.904,38.128L0,38.142L0,19.511L4.01,19.505C4.825,19.498 5.28,19.76 5.68,20.465C7.959,24.483 10.283,28.475 12.595,32.474C12.755,32.753 12.943,33.015 13.118,33.282C13.458,33.07 13.732,32.898 14.054,32.697C11.419,28.129 8.796,23.582 6.123,18.947C8.796,14.308 11.433,9.736 14.069,5.165C13.695,4.946 13.418,4.784 13.082,4.587C12.839,5 12.593,5.413 12.353,5.829C10.118,9.701 7.869,13.564 5.662,17.452C5.287,18.112 4.875,18.382 4.092,18.375L0,18.369L0,0L39.281,0L39.907,0.705C42.145,4.661 44.433,8.59 46.706,12.526C46.907,12.872 47.125,13.209 47.333,13.548C47.666,13.334 47.939,13.159 48.281,12.94L40.822,0L61.349,0L53.88,12.957C54.248,13.178 54.526,13.344 54.849,13.537C55.058,13.193 55.278,12.851 55.48,12.499C57.753,8.563 60.042,4.635 62.279,0.679L62.903,0L107.819,0L108.198,0.454C108.296,0.694 108.456,0.907 108.586,1.133C110.896,5.134 113.205,9.136 115.518,13.135C115.602,13.281 115.724,13.405 115.816,13.523C116.143,13.317 116.413,13.147 116.738,12.942L109.274,0L129.805,0L122.326,12.964C122.718,13.19 122.993,13.349 123.312,13.532C123.528,13.173 123.743,12.829 123.946,12.476C126.183,8.605 128.443,4.747 130.63,0.849C130.846,0.464 131.07,0.191 131.374,0L176.188,0L176.814,0.704C179.053,4.66 181.341,8.588 183.614,12.524C183.815,12.871 184.033,13.209 184.241,13.546C184.574,13.335 184.847,13.161 185.191,12.941L177.73,0L198.258,0L190.783,12.967C191.169,13.189 191.445,13.348 191.766,13.533C191.98,13.179 192.195,12.834 192.4,12.482C194.635,8.61 196.893,4.751 199.082,0.854C199.311,0.446 199.549,0.161 199.825,0L244.677,0L245.175,0.552C246.353,2.668 247.585,4.753 248.797,6.85C250.08,9.074 251.364,11.297 252.664,13.55C253.012,13.339 253.305,13.162 253.652,12.951L246.183,0L266.711,0L259.238,12.966C259.62,13.186 259.898,13.345 260.221,13.531C260.432,13.181 260.649,12.836 260.852,12.484C263.087,8.612 265.348,4.754 267.533,0.855C267.764,0.444 268.003,0.16 268.28,0L287.996,0L287.996,287.998L284.176,287.998L287.29,282.6C287.489,282.253 287.673,281.898 287.864,281.546C287.502,281.348 287.203,281.182 286.875,281.001L282.835,287.998L261.354,287.998L267.52,277.269C267.977,276.457 268.472,276.131 269.429,276.144C273.9,276.201 278.371,276.171 282.843,276.173L284.059,276.173L284.059,275.034L282.678,275.034C278.319,275.035 273.959,275.006 269.6,275.057C268.598,275.068 268,274.807 267.492,273.882C265.752,270.716 263.905,267.609 262.099,264.48C261.486,263.419 260.869,262.359 260.232,261.263C259.884,261.477 259.59,261.658 259.254,261.864C261.913,266.475 264.55,271.049 267.171,275.596L260.02,287.998L252.876,287.998L245.724,275.595C248.39,270.969 251.021,266.405 253.65,261.844C253.257,261.621 252.98,261.465 252.672,261.289C252.482,261.598 252.303,261.878 252.136,262.166C249.844,266.133 247.539,270.092 245.279,274.077C244.882,274.776 244.44,275.062 243.619,275.054C239.148,275.015 234.677,275.035 230.207,275.034L228.832,275.034L228.832,276.174L230.066,276.174L243.255,276.139C244.334,276.12 244.92,276.44 245.442,277.375L251.539,287.998L230.061,287.998L226.555,281.926C226.372,281.608 226.174,281.298 225.983,280.982C225.636,281.203 225.346,281.387 225.037,281.585C225.262,281.988 225.46,282.345 225.663,282.698L228.722,287.998L215.719,287.998L218.835,282.601C219.034,282.254 219.219,281.899 219.409,281.547C219.045,281.345 218.748,281.182 218.42,281.001L214.382,287.998L192.898,287.998L194.359,285.475C195.98,282.668 197.62,279.874 199.201,277.044C199.582,276.359 200.032,276.06 200.791,276.163C201.047,276.198 201.313,276.168 201.573,276.168C206.081,276.169 210.589,276.17 215.097,276.167C215.273,276.167 215.447,276.126 215.626,276.104L215.626,275.034L214.185,275.034C209.714,275.034 205.243,275.016 200.772,275.052C199.997,275.059 199.574,274.798 199.196,274.132C196.934,270.148 194.63,266.188 192.339,262.221C192.154,261.903 191.956,261.591 191.752,261.255C191.411,261.482 191.124,261.672 190.809,261.882C193.46,266.478 196.082,271.022 198.718,275.592L191.567,287.998L184.424,287.998L177.916,276.77C177.425,275.94 177.361,275.337 177.884,274.463C180.18,270.628 182.382,266.737 184.615,262.865C184.812,262.523 184.987,262.169 185.167,261.829C184.809,261.622 184.534,261.462 184.219,261.281C184.012,261.623 183.815,261.935 183.629,262.255C181.394,266.125 179.135,269.983 176.945,273.878C176.468,274.726 175.96,275.078 174.95,275.064C170.554,274.999 166.157,275.035 161.76,275.034L160.381,275.034L160.381,276.173L161.603,276.173L175.016,276.144C175.975,276.131 176.468,276.46 176.924,277.273L183.086,287.998L161.607,287.998L158.101,281.926C157.917,281.609 157.721,281.298 157.529,280.983C157.183,281.203 156.892,281.388 156.572,281.592L160.27,287.998L147.268,287.998L150.382,282.6C150.581,282.253 150.765,281.898 150.955,281.546C150.594,281.348 150.294,281.182 149.967,281.001L145.927,287.998L124.447,287.998L130.572,277.323C131.083,276.405 131.671,276.059 132.681,276.152C133.53,276.23 134.393,276.169 135.25,276.169C139.05,276.17 142.851,276.171 146.651,276.168C146.825,276.167 146.999,276.126 147.21,276.099C147.18,275.716 147.156,275.407 147.127,275.034L145.724,275.034C141.29,275.034 136.855,275.009 132.423,275.057C131.552,275.067 131.067,274.795 130.681,274.03C130.094,272.867 129.395,271.762 128.743,270.634C126.956,267.538 125.169,264.444 123.328,261.257C122.973,261.473 122.693,261.644 122.343,261.858C124.979,266.431 127.615,271.004 130.263,275.594L123.112,287.998L115.969,287.998L108.816,275.593C111.496,270.947 114.116,266.404 116.741,261.853C116.369,261.636 116.072,261.463 115.759,261.28C115.561,261.608 115.405,261.86 115.256,262.116C112.964,266.083 110.655,270.04 108.4,274.029C107.982,274.769 107.53,275.067 106.657,275.058C102.149,275.01 97.64,275.035 93.131,275.035L91.933,275.035L91.933,276.174L93.212,276.174L106.626,276.15C107.47,276.142 107.968,276.359 108.39,277.135C109.672,279.49 111.049,281.793 112.39,284.115L114.634,287.998L93.152,287.998L89.646,281.926C89.463,281.608 89.266,281.298 89.075,280.982C88.73,281.202 88.438,281.387 88.128,281.585C88.354,281.988 88.55,282.345 88.755,282.698L91.813,287.998L78.81,287.998L81.926,282.601C82.126,282.254 82.31,281.899 82.501,281.547C82.14,281.348 81.84,281.182 81.512,281.001L77.473,287.998L55.993,287.998L62.168,277.25C62.628,276.43 63.143,276.134 64.089,276.145C68.783,276.198 73.478,276.17 78.172,276.168C78.349,276.168 78.524,276.13 78.747,276.105C78.726,275.731 78.708,275.421 78.686,275.034L77.292,275.034C72.821,275.035 68.35,275.018 63.879,275.051C63.116,275.057 62.677,274.824 62.294,274.148C60.167,270.386 57.991,266.654 55.831,262.912C55.517,262.367 55.199,261.823 54.865,261.247C54.51,261.478 54.221,261.667 53.898,261.877C56.544,266.465 59.166,271.01 61.81,275.593L54.657,287.998L47.513,287.998L40.36,275.593C43.019,270.984 45.642,266.438 48.282,261.86C47.939,261.655 47.644,261.477 47.311,261.279C47.098,261.63 46.9,261.943 46.716,262.263C44.442,266.198 42.156,270.125 39.915,274.079C39.519,274.778 39.075,275.062 38.255,275.054C33.784,275.015 29.313,275.035 24.842,275.034L23.468,275.034L23.468,276.174L24.703,276.174C29.025,276.172 33.348,276.156 37.671,276.176C39.703,276.184 39.149,275.851 40.216,277.684L46.176,287.998L24.698,287.998L21.192,281.926C21.009,281.609 20.812,281.298 20.621,280.983C20.272,281.204 19.983,281.388 19.663,281.592L23.36,287.998L10.359,287.998L13.473,282.6C13.673,282.253 13.856,281.898 14.046,281.546C13.685,281.348 13.386,281.182 13.058,281.001L9.018,287.998L0,287.998L0,276.169L9.764,276.167C9.936,276.166 10.109,276.113 10.257,276.089L10.257,275.034L8.904,275.034L0,275.048L0,256.414L3.976,256.407C4.853,256.397 5.301,256.698 5.718,257.437C7.955,261.393 10.246,265.319 12.521,269.255C12.703,269.571 12.903,269.88 13.093,270.194C13.428,269.986 13.707,269.815 14.054,269.601C11.415,265.027 8.777,260.453 6.121,255.851C8.783,251.239 11.42,246.666 14.077,242.06C13.698,241.851 13.401,241.688 13.066,241.503C10.413,246.094 7.786,250.64 5.113,255.269L0,255.269L0,236.645L9.07,236.66L10.243,236.66L10.243,235.549L8.959,235.549L0,235.569L0,216.929L3.925,216.921C4.841,216.91 5.309,217.23 5.742,217.997C7.957,221.919 10.227,225.811 12.482,229.713C12.683,230.061 12.898,230.401 13.104,230.739C13.439,230.526 13.711,230.353 14.06,230.131C11.423,225.558 8.785,220.984 6.123,216.366C8.77,211.776 11.411,207.201 14.063,202.601C13.715,202.397 13.418,202.224 13.087,202.029C12.897,202.344 12.717,202.624 12.55,202.912C10.371,206.683 8.203,210.463 6.008,214.227C4.904,216.121 5.492,215.787 3.269,215.797L0,215.799L0,197.2L9.764,197.198C9.936,197.198 10.108,197.145 10.256,197.12L10.256,196.066L8.904,196.066L0,196.08L0,177.441L3.757,177.433C4.806,177.417 5.342,177.784 5.837,178.664C8.027,182.562 10.287,186.419 12.524,190.29C12.706,190.607 12.905,190.915 13.096,191.226C13.433,191.016 13.711,190.844 14.052,190.63C11.413,186.055 8.775,181.481 6.122,176.883C8.785,172.266 11.422,167.693 14.077,163.09C13.694,162.881 13.397,162.718 13.064,162.537C10.412,167.129 7.785,171.675 5.11,176.304L0,176.304L0,157.676L9.069,157.692L10.242,157.692L10.242,156.581L8.959,156.581L0,156.579L0,137.965L4.065,137.959C4.83,137.953 5.261,138.184 5.643,138.859C7.9,142.844 10.206,146.802 12.496,150.768C12.692,151.109 12.904,151.441 13.101,151.763C13.458,151.542 13.727,151.374 14.064,151.166C11.413,146.57 8.775,141.997 6.123,137.399C8.784,132.786 11.422,128.21 14.063,123.633C13.703,123.428 13.402,123.257 13.075,123.071C12.861,123.428 12.665,123.742 12.48,124.062C10.208,127.996 7.919,131.922 5.683,135.875C5.285,136.578 4.843,136.86 4.023,136.853L0,136.847L0,118.232L4.733,118.232C6.41,118.232 8.087,118.232 9.764,118.23C9.936,118.229 10.108,118.175 10.256,118.149L10.256,117.097L8.903,117.097L0,117.111L0,98.479L3.882,98.474C4.765,98.466 5.282,98.714 5.731,99.513C7.976,103.507 10.291,107.463 12.585,111.429C12.749,111.71 12.934,111.979 13.109,112.252C13.444,112.043 13.721,111.869 14.053,111.662C11.411,107.081 8.77,102.505 6.123,97.915C8.791,93.289 11.427,88.717 14.076,84.123C13.685,83.912 13.388,83.75 13.062,83.573C10.405,88.171 7.779,92.716 5.118,97.322L0,97.322L0,78.708L9.069,78.723L10.243,78.723L10.243,77.612L8.959,77.612L0,77.61L0,59.022ZM108.1,276.135C108.293,275.912 108.522,275.764 108.521,275.617C108.519,275.471 108.295,275.223 108.155,275.213C108.02,275.202 107.77,275.425 107.747,275.572C107.726,275.711 107.933,275.886 108.1,276.135ZM39.709,276.135C39.875,275.887 40.084,275.712 40.063,275.57C40.043,275.424 39.792,275.204 39.651,275.212C39.516,275.219 39.297,275.47 39.292,275.62C39.288,275.762 39.515,275.91 39.709,276.135ZM245.071,276.134C245.24,275.885 245.449,275.709 245.427,275.57C245.404,275.423 245.155,275.205 245.015,275.213C244.878,275.22 244.659,275.471 244.655,275.62C244.65,275.762 244.878,275.91 245.071,276.134ZM130.916,276.133C131.11,275.908 131.336,275.759 131.332,275.617C131.329,275.469 131.106,275.218 130.973,275.213C130.83,275.208 130.586,275.424 130.561,275.573C130.537,275.71 130.748,275.885 130.916,276.133ZM198.848,275.563C199.078,275.754 199.229,275.976 199.372,275.971C199.523,275.966 199.667,275.745 199.814,275.619C199.686,275.474 199.571,275.23 199.424,275.21C199.281,275.19 199.105,275.394 198.848,275.563ZM177.138,275.626C176.911,275.433 176.763,275.209 176.614,275.208C176.468,275.208 176.322,275.436 176.175,275.564C176.303,275.708 176.417,275.95 176.563,275.971C176.707,275.992 176.883,275.79 177.138,275.626ZM268.408,275.561C268.151,275.393 267.975,275.187 267.835,275.21C267.686,275.234 267.57,275.474 267.439,275.619C267.587,275.745 267.731,275.965 267.882,275.97C268.026,275.974 268.176,275.753 268.408,275.561ZM63.044,275.563C62.788,275.394 62.611,275.188 62.472,275.209C62.321,275.233 62.206,275.473 62.075,275.617C62.223,275.744 62.365,275.964 62.517,275.97C62.66,275.975 62.811,275.754 63.044,275.563ZM195.999,256.431L209.303,256.411C210.151,256.403 210.638,256.64 211.067,257.404C213.183,261.172 215.365,264.902 217.526,268.645C217.822,269.158 218.126,269.668 218.444,270.211C218.793,269.986 219.085,269.8 219.409,269.59C216.747,264.974 214.108,260.399 211.486,255.852C214.175,251.187 216.809,246.619 219.442,242.049C219.035,241.827 218.76,241.677 218.453,241.509C218.246,241.847 218.044,242.158 217.86,242.478C215.792,246.059 213.729,249.643 211.658,253.223C211.286,253.867 211.031,254.747 210.467,255.068C209.863,255.41 208.958,255.254 208.185,255.257C203.788,255.269 199.39,255.263 194.992,255.268C194.857,255.268 194.721,255.302 194.583,255.32L194.583,256.431L195.999,256.431ZM264.487,256.43L277.79,256.407C278.665,256.398 279.116,256.693 279.534,257.434C281.771,261.391 284.062,265.316 286.336,269.251C286.519,269.57 286.719,269.879 286.91,270.194C287.242,269.988 287.522,269.817 287.872,269.602C285.233,265.028 282.595,260.455 279.938,255.851C282.599,251.241 285.236,246.668 287.893,242.061C287.518,241.852 287.221,241.688 286.885,241.502C284.216,246.117 281.574,250.688 278.928,255.268L263.085,255.268L263.085,256.43L264.487,256.43ZM127.484,256.43L140.563,256.4C141.642,256.381 142.228,256.704 142.752,257.64C144.935,261.54 147.199,265.396 149.436,269.267C149.619,269.581 149.816,269.885 150.007,270.193C150.35,269.98 150.628,269.807 150.962,269.599C148.319,265.02 145.679,260.443 143.03,255.853C145.696,251.228 148.334,246.656 150.984,242.057C150.595,241.848 150.298,241.688 149.969,241.511C147.314,246.105 144.689,250.65 142.026,255.257L126.141,255.257L126.141,256.43L127.484,256.43ZM165.509,255.261L157.541,241.475C157.196,241.686 156.922,241.855 156.557,242.079C159.224,246.702 161.848,251.25 164.502,255.851C161.855,260.44 159.216,265.017 156.57,269.602C156.923,269.815 157.22,269.994 157.542,270.188C157.751,269.841 157.928,269.558 158.094,269.27C160.369,265.334 162.666,261.412 164.893,257.449C165.343,256.65 165.859,256.402 166.743,256.411C171.177,256.452 175.612,256.429 180.048,256.43L181.392,256.43L181.392,255.261L165.509,255.261ZM59.05,256.43L72.466,256.411C73.28,256.403 73.735,256.666 74.134,257.371C76.412,261.389 78.737,265.382 81.049,269.381C81.209,269.659 81.398,269.921 81.573,270.188C81.913,269.974 82.187,269.803 82.508,269.602C79.856,265.004 77.216,260.426 74.577,255.851C77.251,251.214 79.888,246.641 82.524,242.07C82.15,241.852 81.872,241.69 81.536,241.493C81.311,241.874 81.082,242.254 80.861,242.637C78.607,246.542 76.34,250.438 74.115,254.358C73.741,255.018 73.328,255.288 72.546,255.281C68,255.241 63.454,255.261 58.908,255.261L57.687,255.261L57.687,256.43L59.05,256.43ZM233.965,255.263L225.997,241.479C225.653,241.688 225.377,241.854 225.01,242.076C227.692,246.726 230.331,251.299 232.958,255.852C230.276,260.498 227.653,265.045 225.023,269.602C225.376,269.814 225.674,269.993 225.997,270.187C226.203,269.844 226.38,269.562 226.547,269.274C228.839,265.306 231.145,261.346 233.405,257.359C233.806,256.65 234.269,256.403 235.08,256.41C239.551,256.45 244.024,256.429 248.496,256.429L249.847,256.429L249.847,255.263L233.965,255.263ZM28.602,255.266L20.634,241.476C20.268,241.701 19.973,241.884 19.651,242.083C22.328,246.724 24.966,251.298 27.593,255.854C24.915,260.495 22.293,265.042 19.661,269.603C20.014,269.815 20.309,269.992 20.634,270.186C20.839,269.846 21.017,269.564 21.183,269.275C23.475,265.308 25.781,261.348 28.041,257.361C28.442,256.653 28.903,256.403 29.715,256.411C34.187,256.451 38.659,256.43 43.132,256.431L44.486,256.431L44.486,255.266L28.602,255.266ZM97.056,255.266L89.089,241.477C88.723,241.702 88.427,241.884 88.105,242.083C90.782,246.725 93.421,251.298 96.048,255.853C93.369,260.495 90.747,265.042 88.114,269.605C88.466,269.815 88.764,269.991 89.089,270.185C89.292,269.848 89.47,269.566 89.637,269.277C91.929,265.31 94.235,261.349 96.495,257.363C96.895,256.655 97.356,256.403 98.168,256.411C102.639,256.451 107.112,256.43 111.584,256.43L112.94,256.43L112.94,255.266L97.056,255.266ZM142.322,256.419C142.521,256.185 142.752,256.034 142.752,255.882C142.752,255.734 142.524,255.479 142.383,255.469C142.241,255.46 141.981,255.683 141.961,255.829C141.941,255.978 142.151,256.158 142.322,256.419ZM73.933,255.297C73.737,255.526 73.502,255.68 73.507,255.826C73.511,255.981 73.744,256.129 73.876,256.278C74.026,256.146 74.271,256.028 74.297,255.875C74.321,255.734 74.106,255.553 73.933,255.297ZM211.378,255.882C211.142,255.687 210.987,255.461 210.839,255.465C210.686,255.469 210.538,255.696 210.387,255.826C210.52,255.977 210.637,256.227 210.788,256.251C210.933,256.272 211.114,256.058 211.378,255.882ZM279.832,255.882C279.597,255.687 279.441,255.461 279.295,255.465C279.141,255.469 278.993,255.695 278.842,255.825C278.974,255.976 279.09,256.227 279.242,256.25C279.387,256.273 279.568,256.058 279.832,255.882ZM6.015,255.881C5.778,255.686 5.623,255.461 5.476,255.464C5.322,255.469 5.175,255.695 5.025,255.825C5.157,255.976 5.273,256.227 5.425,256.25C5.57,256.272 5.751,256.058 6.015,255.881ZM28.83,255.816C28.573,255.65 28.393,255.445 28.247,255.467C28.096,255.489 27.977,255.733 27.846,255.879C27.994,256.012 28.142,256.247 28.292,256.25C28.441,256.251 28.595,256.019 28.83,255.816ZM97.285,255.816C97.029,255.652 96.849,255.447 96.702,255.467C96.552,255.488 96.431,255.733 96.3,255.879C96.448,256.012 96.596,256.248 96.746,256.25C96.896,256.252 97.049,256.019 97.285,255.816ZM234.196,255.879C233.96,255.686 233.804,255.46 233.66,255.466C233.504,255.473 233.356,255.696 233.204,255.826C233.337,255.977 233.455,256.226 233.606,256.249C233.751,256.271 233.931,256.057 234.196,255.879ZM165.74,255.879C165.505,255.685 165.349,255.459 165.204,255.465C165.048,255.472 164.9,255.696 164.75,255.826C164.883,255.977 165,256.226 165.151,256.249C165.297,256.27 165.476,256.056 165.74,255.879ZM24.72,236.659L38.251,236.638C39.07,236.63 39.508,236.905 39.907,237.611C42.145,241.568 44.433,245.496 46.708,249.432C46.908,249.779 47.125,250.116 47.333,250.455C47.668,250.24 47.94,250.064 48.281,249.845C45.644,245.272 43.004,240.693 40.361,236.108C43.023,231.491 45.662,226.916 48.297,222.344C47.922,222.125 47.643,221.963 47.302,221.764C44.66,226.337 42.014,230.913 39.334,235.551L23.458,235.551L23.458,236.659L24.72,236.659ZM161.594,236.66L175.124,236.638C175.932,236.632 176.394,236.864 176.798,237.581C179.034,241.539 181.324,245.466 183.598,249.403C183.802,249.755 184.019,250.098 184.232,250.449C184.57,250.233 184.86,250.047 185.188,249.838C182.536,245.242 179.913,240.693 177.271,236.11C179.919,231.515 182.557,226.94 185.203,222.35C184.828,222.135 184.533,221.966 184.204,221.778C181.534,226.397 178.891,230.969 176.241,235.551L160.37,235.551L160.37,236.66L161.594,236.66ZM230.048,236.659L243.466,236.637C244.35,236.628 244.865,236.877 245.313,237.674C247.521,241.605 249.798,245.496 252.052,249.401C252.255,249.753 252.472,250.097 252.684,250.448C253.024,250.232 253.315,250.047 253.643,249.838C250.991,245.242 248.369,240.693 245.725,236.11C248.373,231.516 251.012,226.94 253.659,222.349C253.285,222.134 252.99,221.965 252.668,221.781C252.434,222.176 252.222,222.526 252.018,222.879C249.745,226.815 247.458,230.745 245.214,234.699C244.856,235.33 244.467,235.575 243.728,235.568C239.182,235.532 234.633,235.549 230.087,235.549L228.826,235.549L228.826,236.659L230.048,236.659ZM93.156,236.659L106.685,236.637C107.497,236.63 107.949,236.882 108.351,237.593C110.589,241.551 112.878,245.479 115.151,249.415C115.354,249.767 115.575,250.108 115.783,250.447C116.108,250.248 116.386,250.078 116.745,249.861C114.107,245.287 111.468,240.709 108.815,236.109C111.47,231.504 114.108,226.929 116.749,222.35C116.365,222.132 116.07,221.964 115.748,221.781C113.074,226.406 110.43,230.978 107.782,235.559L91.913,235.559L91.913,236.659L93.156,236.659ZM62.837,235.555L54.863,221.758C54.509,221.979 54.218,222.161 53.885,222.369C56.536,226.966 59.16,231.514 61.81,236.108C59.167,240.691 56.528,245.268 53.884,249.854C54.251,250.072 54.544,250.245 54.867,250.436C55.101,250.041 55.313,249.693 55.516,249.339C57.771,245.435 60.041,241.54 62.261,237.614C62.659,236.912 63.097,236.631 63.917,236.638C68.427,236.679 72.937,236.659 77.448,236.66L78.711,236.66L78.711,235.555L62.837,235.555ZM199.744,235.551L191.77,221.756C191.416,221.98 191.124,222.164 190.795,222.374C193.447,226.971 196.071,231.52 198.718,236.109C196.073,240.696 193.433,245.274 190.792,249.855C191.162,250.072 191.456,250.246 191.776,250.435C192.012,250.036 192.224,249.687 192.427,249.334C194.682,245.429 196.954,241.533 199.174,237.609C199.572,236.903 200.014,236.632 200.832,236.638C205.342,236.679 209.852,236.659 214.363,236.66L215.621,236.66L215.621,235.551L199.744,235.551ZM268.198,235.551L260.224,221.756C259.87,221.979 259.579,222.163 259.248,222.372C261.9,226.97 264.524,231.517 267.172,236.107C264.527,240.694 261.888,245.273 259.247,249.854C259.615,250.071 259.909,250.245 260.23,250.434C260.465,250.037 260.678,249.687 260.881,249.334C263.135,245.429 265.407,241.534 267.627,237.609C268.026,236.904 268.466,236.631 269.285,236.638C273.796,236.678 278.305,236.658 282.816,236.66L284.075,236.66L284.075,235.551L268.198,235.551ZM131.285,235.545L123.312,221.748C122.955,221.978 122.664,222.166 122.341,222.375C124.997,226.978 127.62,231.526 130.263,236.108C127.614,240.702 124.975,245.28 122.335,249.86C122.713,250.078 123.007,250.249 123.323,250.434C123.563,250.028 123.774,249.678 123.978,249.325C126.233,245.42 128.504,241.525 130.724,237.6C131.124,236.891 131.573,236.631 132.388,236.638C136.897,236.678 141.408,236.658 145.918,236.66L147.168,236.66L147.168,235.545L131.285,235.545ZM199.238,236.696C199.332,236.64 199.426,236.583 199.521,236.527C199.614,236.363 199.771,236.199 199.775,236.034C199.778,235.933 199.505,235.722 199.416,235.75C199.248,235.803 199.028,235.981 199.009,236.13C198.985,236.306 199.152,236.507 199.238,236.696ZM39.648,236.625C39.843,236.396 39.971,236.248 40.097,236.099C39.946,235.974 39.807,235.791 39.635,235.748C39.544,235.726 39.284,235.959 39.293,236.059C39.309,236.224 39.48,236.375 39.648,236.625ZM267.818,236.621C268.019,236.394 268.21,236.267 268.254,236.099C268.276,236.008 268.037,235.738 267.941,235.751C267.766,235.773 267.528,235.916 267.476,236.064C267.437,236.173 267.655,236.372 267.818,236.621ZM176.63,235.588C176.427,235.812 176.235,235.94 176.191,236.106C176.166,236.199 176.401,236.473 176.494,236.462C176.669,236.441 176.912,236.302 176.964,236.155C177.003,236.043 176.789,235.842 176.63,235.588ZM130.997,235.59C130.791,235.812 130.658,235.957 130.525,236.101C130.673,236.229 130.805,236.416 130.974,236.461C131.066,236.486 131.333,236.264 131.327,236.165C131.317,235.999 131.152,235.842 130.997,235.59ZM108.697,236.08C108.421,235.92 108.256,235.757 108.082,235.747C107.967,235.742 107.84,235.956 107.718,236.072C107.853,236.21 107.978,236.445 108.126,236.459C108.271,236.472 108.437,236.264 108.697,236.08ZM245.602,236.166C245.355,235.966 245.22,235.78 245.056,235.747C244.941,235.725 244.66,235.939 244.672,236.003C244.707,236.177 244.836,236.428 244.971,236.459C245.119,236.492 245.314,236.311 245.602,236.166ZM63.059,236.062C62.775,235.91 62.605,235.751 62.434,235.751C62.315,235.75 62.195,235.967 62.076,236.086C62.217,236.219 62.35,236.446 62.5,236.458C62.643,236.469 62.803,236.255 63.059,236.062ZM81.539,202.016C81.886,202.223 82.168,202.39 82.518,202.598C79.883,207.168 77.245,211.742 74.577,216.368C77.221,220.953 79.858,225.525 82.52,230.14C82.172,230.35 81.879,230.527 81.532,230.736C78.876,226.14 76.233,221.567 73.557,216.938L57.685,216.938L57.685,215.802L58.937,215.802C63.445,215.803 67.952,215.784 72.459,215.822C73.27,215.828 73.726,215.569 74.127,214.86C76.364,210.907 78.652,206.981 80.924,203.047C81.109,202.725 81.303,202.409 81.539,202.016ZM286.898,202.02C287.24,202.22 287.521,202.383 287.883,202.594C285.248,207.162 282.612,211.732 279.938,216.367C282.579,220.944 285.217,225.515 287.881,230.134C287.539,230.342 287.247,230.522 286.895,230.735C284.245,226.148 281.602,221.576 278.926,216.946L263.047,216.946L263.047,215.802L264.287,215.802C268.757,215.802 273.227,215.779 277.696,215.823C278.586,215.832 279.095,215.57 279.541,214.777C281.751,210.85 284.026,206.96 286.279,203.059C286.465,202.737 286.658,202.421 286.898,202.02ZM218.45,202.026C218.782,202.218 219.063,202.381 219.43,202.594C216.796,207.159 214.16,211.728 211.486,216.365C214.123,220.939 216.759,225.511 219.423,230.128C219.087,230.337 218.794,230.518 218.442,230.735C215.794,226.154 213.15,221.581 210.474,216.95L194.593,216.95L194.593,215.802L195.826,215.802C200.296,215.802 204.767,215.78 209.235,215.822C210.121,215.831 210.637,215.579 211.085,214.782C213.313,210.822 215.607,206.901 217.88,202.967C218.064,202.649 218.262,202.338 218.45,202.026ZM127.451,216.946L140.971,216.927C141.735,216.921 142.169,217.15 142.551,217.825C144.807,221.811 147.112,225.768 149.403,229.735C149.6,230.076 149.812,230.408 150.009,230.731C150.364,230.512 150.635,230.343 150.971,230.136C148.321,225.539 145.684,220.967 143.031,216.367C145.673,211.787 148.295,207.241 150.971,202.602C150.611,202.396 150.31,202.225 149.983,202.039C149.768,202.396 149.572,202.71 149.386,203.032C147.115,206.966 144.828,210.891 142.591,214.844C142.192,215.547 141.75,215.828 140.93,215.821C136.425,215.782 131.918,215.802 127.411,215.801L126.162,215.801L126.162,216.946L127.451,216.946ZM112.94,216.944L112.94,215.801L111.699,215.801C107.192,215.802 102.685,215.783 98.179,215.821C97.373,215.827 96.907,215.587 96.504,214.873C94.248,210.887 91.941,206.93 89.651,202.964C89.467,202.646 89.269,202.334 89.076,202.017C88.731,202.233 88.438,202.418 88.117,202.619C90.783,207.24 93.42,211.813 96.047,216.366C93.364,221.021 90.73,225.589 88.097,230.158C88.487,230.379 88.764,230.536 89.098,230.724L97.062,216.944L112.94,216.944ZM249.845,216.947L249.845,215.802L248.583,215.802C244.076,215.802 239.569,215.783 235.062,215.821C234.247,215.828 233.8,215.558 233.4,214.852C231.144,210.866 228.838,206.909 226.547,202.942C226.364,202.628 226.167,202.323 225.98,202.017C225.636,202.226 225.355,202.395 225.016,202.6C227.667,207.199 230.321,211.799 232.956,216.367C230.263,221.037 227.632,225.6 225.006,230.154C225.414,230.387 225.686,230.541 225.995,230.718C226.218,230.345 226.432,229.998 226.635,229.645C228.907,225.712 231.193,221.785 233.434,217.833C233.813,217.162 234.238,216.921 235.008,216.927C239.552,216.964 244.096,216.946 248.641,216.947L249.845,216.947ZM43.193,215.802L29.893,215.799C29.381,215.798 28.869,215.744 28.357,215.714C28.254,215.419 28.194,215.104 28.045,214.841C25.689,210.739 23.322,206.644 20.954,202.548C20.848,202.365 20.709,202.199 20.589,202.03C20.267,202.23 19.989,202.401 19.656,202.607C22.295,207.18 24.935,211.757 27.593,216.366C24.938,220.97 22.301,225.544 19.648,230.145C20.015,230.359 20.308,230.53 20.623,230.715C20.803,230.424 20.965,230.176 21.112,229.92C23.2,226.308 25.28,222.692 27.374,219.084C27.782,218.38 28.092,217.464 28.713,217.086C29.293,216.734 30.23,216.95 31.009,216.949C35.368,216.942 39.727,216.944 44.086,216.941C44.222,216.941 44.357,216.905 44.469,216.89L44.469,215.802L43.193,215.802ZM180.102,215.802L166.801,215.799C166.29,215.798 165.779,215.745 165.266,215.714C165.162,215.419 165.104,215.104 164.953,214.842C162.597,210.739 160.23,206.644 157.862,202.549C157.756,202.365 157.617,202.199 157.498,202.03C157.175,202.23 156.897,202.401 156.564,202.607C159.203,207.18 161.844,211.757 164.502,216.366C161.847,220.97 159.209,225.544 156.556,230.145C156.923,230.359 157.216,230.53 157.532,230.715C157.711,230.424 157.874,230.176 158.021,229.92C160.108,226.308 162.189,222.692 164.282,219.084C164.691,218.381 165,217.464 165.622,217.086C166.202,216.734 167.138,216.95 167.917,216.949C172.276,216.942 176.635,216.944 180.994,216.941C181.13,216.941 181.265,216.906 181.378,216.89L181.378,215.802L180.102,215.802ZM73.864,216.912C74.065,216.686 74.301,216.537 74.298,216.392C74.296,216.242 74.07,215.989 73.926,215.977C73.788,215.967 73.536,216.19 73.51,216.342C73.485,216.479 73.696,216.659 73.864,216.912ZM233.665,216.911C233.834,216.659 234.046,216.48 234.022,216.343C233.997,216.192 233.744,215.968 233.606,215.98C233.462,215.992 233.24,216.24 233.233,216.392C233.228,216.533 233.464,216.683 233.665,216.911ZM279.831,216.399C279.596,216.202 279.442,215.974 279.292,215.975C279.143,215.976 278.994,216.208 278.846,216.337C278.976,216.483 279.094,216.725 279.242,216.746C279.391,216.767 279.569,216.565 279.831,216.399ZM211.377,216.399C211.14,216.199 210.986,215.972 210.838,215.975C210.687,215.977 210.539,216.207 210.39,216.337C210.522,216.482 210.64,216.725 210.787,216.746C210.936,216.766 211.114,216.564 211.377,216.399ZM97.287,216.399C97.049,216.2 96.895,215.972 96.749,215.977C96.596,215.981 96.448,216.209 96.299,216.338C96.431,216.483 96.549,216.723 96.698,216.745C96.845,216.766 97.023,216.565 97.287,216.399ZM5.481,215.811C5.287,216.037 5.059,216.186 5.056,216.336C5.055,216.48 5.285,216.737 5.421,216.743C5.567,216.749 5.824,216.534 5.845,216.388C5.866,216.243 5.653,216.066 5.481,215.811ZM142.322,215.81C142.153,216.063 141.943,216.241 141.963,216.387C141.982,216.532 142.241,216.752 142.382,216.742C142.522,216.734 142.749,216.482 142.75,216.336C142.752,216.188 142.521,216.039 142.322,215.81ZM28.357,215.714L28.335,215.713C28.341,215.722 28.346,215.731 28.352,215.739C28.201,215.881 28.006,215.997 27.915,216.169C27.853,216.287 27.892,216.546 27.986,216.638C28.084,216.732 28.342,216.766 28.461,216.701C28.578,216.638 28.688,216.4 28.658,216.269C28.616,216.078 28.465,215.913 28.352,215.739L28.362,215.73L28.357,215.714ZM165.266,215.714L165.243,215.713C165.249,215.722 165.255,215.731 165.26,215.74C165.11,215.881 164.914,215.997 164.823,216.169C164.761,216.287 164.8,216.546 164.894,216.638C164.993,216.732 165.249,216.766 165.37,216.701C165.486,216.638 165.596,216.4 165.567,216.269C165.525,216.08 165.373,215.914 165.26,215.74L165.271,215.73L165.266,215.714ZM24.69,197.204L38.215,197.177C39.095,197.165 39.538,197.469 39.954,198.205C42.078,201.969 44.255,205.701 46.416,209.443C46.711,209.956 47.013,210.465 47.321,210.989C47.671,210.75 47.96,210.553 48.271,210.341C45.614,205.733 42.994,201.188 40.361,196.623C43.023,192.008 45.657,187.443 48.289,182.88C47.904,182.654 47.628,182.492 47.314,182.309C47.108,182.65 46.909,182.962 46.724,183.281C44.525,187.087 42.338,190.899 40.125,194.697C39.193,196.297 39.671,196.055 37.712,196.062C33.987,196.075 30.26,196.064 26.534,196.067C25.603,196.068 24.672,196.078 23.741,196.094C23.645,196.096 23.55,196.172 23.457,196.213L23.457,197.204L24.69,197.204ZM93.148,197.204L106.561,197.174C107.521,197.162 108.013,197.491 108.469,198.303C110.585,202.071 112.766,205.801 114.926,209.544C115.203,210.024 115.49,210.498 115.781,210.988C116.128,210.749 116.415,210.55 116.724,210.338C114.065,205.728 111.445,201.184 108.815,196.623C111.478,192.005 114.111,187.441 116.743,182.877C116.353,182.652 116.078,182.492 115.767,182.313C115.578,182.622 115.398,182.901 115.232,183.188C112.996,187.058 110.731,190.913 108.549,194.813C108.031,195.738 107.478,196.114 106.385,196.096C102.026,196.023 97.666,196.066 93.307,196.065C92.863,196.064 92.421,196.065 91.928,196.065L91.928,197.204L93.148,197.204ZM161.596,197.204L175.121,197.176C176,197.166 176.445,197.466 176.861,198.203C178.985,201.967 181.162,205.698 183.323,209.441C183.619,209.954 183.921,210.463 184.228,210.987C184.581,210.748 184.869,210.553 185.182,210.342C182.54,205.763 179.935,201.248 177.269,196.625C179.931,192.009 182.564,187.445 185.197,182.881C184.814,182.655 184.538,182.493 184.224,182.308C184.017,182.648 183.819,182.959 183.634,183.279C181.399,187.149 179.131,191.002 176.954,194.905C176.442,195.822 175.856,196.111 174.846,196.089C171.942,196.026 169.034,196.063 166.128,196.068C164.303,196.07 162.478,196.08 160.652,196.094C160.556,196.094 160.46,196.171 160.365,196.212L160.365,197.204L161.596,197.204ZM284.061,197.204L284.061,196.065L282.683,196.065C278.249,196.066 273.815,196.038 269.381,196.09C268.466,196.1 267.903,195.832 267.572,195C267.477,194.76 267.316,194.547 267.186,194.321C264.951,190.451 262.716,186.58 260.477,182.71C260.393,182.564 260.268,182.442 260.166,182.315C259.834,182.527 259.565,182.698 259.267,182.888C259.484,183.278 259.677,183.637 259.881,183.99C262.133,187.894 264.368,191.809 266.66,195.689C267.082,196.403 267.043,196.905 266.634,197.601C264.328,201.516 262.075,205.462 259.806,209.399C259.623,209.714 259.459,210.039 259.287,210.36C259.611,210.575 259.882,210.756 260.222,210.982C260.573,210.378 260.873,209.864 261.169,209.35C263.292,205.672 265.44,202.007 267.517,198.305C267.973,197.49 268.469,197.165 269.424,197.177C273.895,197.231 278.367,197.203 282.838,197.204L284.061,197.204ZM78.697,197.204L78.697,196.065L77.429,196.065C72.995,196.066 68.561,196.03 64.128,196.094C63.117,196.11 62.503,195.821 62.15,194.902C62.071,194.697 61.933,194.513 61.82,194.32C59.586,190.448 57.352,186.577 55.112,182.708C55.028,182.563 54.902,182.442 54.802,182.317C54.471,182.527 54.201,182.699 53.907,182.887C54.105,183.247 54.278,183.575 54.464,183.896C56.716,187.8 58.942,191.719 61.245,195.593C61.718,196.387 61.659,196.943 61.213,197.699C58.924,201.582 56.69,205.497 54.44,209.402C54.259,209.717 54.096,210.043 53.925,210.363C54.249,210.578 54.521,210.758 54.841,210.969C55.053,210.622 55.272,210.28 55.474,209.929C57.709,206.058 59.966,202.199 62.155,198.303C62.613,197.489 63.11,197.164 64.065,197.176C68.535,197.231 73.007,197.203 77.478,197.204L78.697,197.204ZM230.104,197.204L243.629,197.18C244.451,197.173 244.889,197.453 245.285,198.154C247.564,202.172 249.888,206.163 252.2,210.162C252.36,210.438 252.547,210.698 252.721,210.966C253.054,210.742 253.323,210.562 253.64,210.35C250.987,205.75 248.351,201.177 245.723,196.623C248.398,191.988 251.02,187.443 253.641,182.9C253.306,182.689 253.029,182.515 252.68,182.295C252.48,182.625 252.321,182.876 252.173,183.132C249.881,187.099 247.566,191.053 245.321,195.047C244.869,195.848 244.353,196.094 243.47,196.086C239.037,196.045 234.604,196.066 230.169,196.065L228.836,196.065L228.836,197.204L230.104,197.204ZM215.622,196.065L215.622,197.129C215.46,197.152 215.287,197.198 215.113,197.198C210.718,197.201 206.317,197.295 201.926,197.152C200.229,197.096 199.356,197.642 198.571,199.116C196.664,202.697 194.553,206.17 192.522,209.686C192.282,210.103 192.038,210.518 191.778,210.963C191.459,210.771 191.187,210.609 190.793,210.373C193.422,205.811 196.054,201.245 198.717,196.623C196.073,192.039 193.435,187.467 190.799,182.894C191.143,182.681 191.422,182.508 191.758,182.3C191.949,182.614 192.146,182.922 192.33,183.239C194.565,187.109 196.825,190.966 199.015,194.863C199.509,195.743 200.046,196.11 201.092,196.094C205.487,196.029 209.884,196.066 214.28,196.065L215.622,196.065ZM147.163,196.066L147.163,197.113C147.023,197.139 146.852,197.197 146.681,197.197C143.774,197.203 140.868,197.2 137.963,197.2C136.062,197.2 134.161,197.235 132.263,197.184C131.529,197.164 131.129,197.406 130.767,198.045C128.432,202.159 126.053,206.248 123.688,210.344C123.577,210.536 123.454,210.721 123.312,210.951C122.991,210.758 122.696,210.578 122.342,210.363C124.981,205.784 127.602,201.241 130.264,196.625C127.627,192.054 124.988,187.48 122.343,182.895C122.672,182.69 122.948,182.517 123.285,182.307C123.459,182.578 123.646,182.844 123.809,183.124C126.119,187.123 128.443,191.114 130.722,195.132C131.122,195.838 131.576,196.094 132.391,196.087C136.861,196.045 141.333,196.067 145.804,196.066L147.163,196.066ZM245.595,196.594C245.34,196.427 245.164,196.22 245.019,196.239C244.872,196.259 244.756,196.503 244.627,196.649C244.774,196.775 244.916,196.998 245.066,197.002C245.211,197.005 245.363,196.785 245.595,196.594ZM177.141,196.593C176.886,196.426 176.709,196.219 176.564,196.239C176.418,196.258 176.302,196.503 176.173,196.649C176.32,196.775 176.464,196.998 176.614,197.002C176.759,197.005 176.909,196.784 177.141,196.593ZM40.229,196.657C40,196.462 39.85,196.236 39.705,196.239C39.556,196.241 39.412,196.467 39.264,196.595C39.393,196.74 39.508,196.981 39.653,197.002C39.798,197.022 39.974,196.82 40.229,196.657ZM131.5,196.592C131.245,196.426 131.068,196.221 130.927,196.243C130.777,196.265 130.662,196.506 130.532,196.652C130.679,196.778 130.823,196.999 130.975,197.002C131.118,197.006 131.269,196.784 131.5,196.592ZM108.161,196.079C107.969,196.304 107.744,196.453 107.746,196.596C107.749,196.743 107.971,196.995 108.105,197.001C108.248,197.006 108.498,196.791 108.519,196.646C108.54,196.505 108.331,196.329 108.161,196.079ZM199.951,196.654C199.724,196.464 199.575,196.238 199.429,196.24C199.279,196.243 199.135,196.469 198.987,196.598C199.116,196.741 199.231,196.981 199.379,197.001C199.522,197.021 199.697,196.819 199.951,196.654ZM63.044,196.593C62.788,196.425 62.611,196.218 62.472,196.241C62.321,196.265 62.206,196.504 62.075,196.649C62.223,196.775 62.365,196.997 62.517,197.001C62.66,197.006 62.812,196.785 63.044,196.593ZM267.894,196.08C267.697,196.305 267.469,196.451 267.468,196.596C267.468,196.74 267.691,196.991 267.829,196.999C267.967,197.007 268.217,196.792 268.241,196.647C268.262,196.506 268.058,196.33 267.894,196.08ZM264.457,177.462L277.873,177.444C278.635,177.439 279.079,177.664 279.463,178.344C281.608,182.139 283.803,185.905 285.982,189.68C286.279,190.193 286.583,190.702 286.9,191.243C287.25,191.018 287.539,190.83 287.864,190.62C285.2,186.002 282.562,181.429 279.938,176.881C282.618,172.237 285.24,167.691 287.9,163.083C287.488,162.858 287.212,162.707 286.887,162.529C286.631,162.971 286.39,163.388 286.147,163.805C283.894,167.708 281.63,171.607 279.396,175.522C279.085,176.066 278.746,176.36 278.088,176.305C277.422,176.249 276.747,176.292 276.076,176.292C271.864,176.294 267.654,176.295 263.443,176.3C263.308,176.3 263.173,176.334 263.07,176.348L263.07,177.462L264.457,177.462ZM233.963,176.291L225.993,162.503C225.627,162.734 225.332,162.919 225.016,163.118C227.681,167.738 230.304,172.284 232.957,176.883C230.308,181.474 227.668,186.051 225.029,190.626C225.36,190.836 225.637,191.011 225.989,191.234C226.207,190.872 226.384,190.589 226.55,190.301C228.785,186.429 231.05,182.574 233.233,178.674C233.757,177.738 234.342,177.414 235.422,177.432C239.781,177.504 244.141,177.462 248.502,177.463L249.845,177.463L249.845,176.291L233.963,176.291ZM195.935,177.462L194.597,177.462L194.597,176.287L210.483,176.287C213.145,171.68 215.771,167.135 218.425,162.541C218.755,162.72 219.054,162.88 219.441,163.089C216.787,167.689 214.151,172.263 211.486,176.884C214.135,181.477 216.775,186.053 219.415,190.629C219.079,190.84 218.801,191.014 218.461,191.226C218.27,190.916 218.072,190.611 217.89,190.296C215.69,186.49 213.501,182.677 211.287,178.879C210.309,177.2 210.824,177.473 208.792,177.467C204.506,177.452 200.221,177.462 195.935,177.462ZM59.125,177.462L72.429,177.438C73.305,177.429 73.753,177.727 74.172,178.467C76.408,182.423 78.7,186.349 80.975,190.284C81.158,190.602 81.356,190.912 81.547,191.225C81.881,191.019 82.159,190.847 82.507,190.632C79.869,186.059 77.232,181.485 74.576,176.883C77.237,172.271 79.873,167.698 82.531,163.092C82.153,162.883 81.856,162.719 81.522,162.534C78.854,167.15 76.211,171.722 73.563,176.3L57.691,176.3L57.691,177.462L59.125,177.462ZM44.469,176.293L44.469,177.351C44.354,177.381 44.22,177.447 44.085,177.448C42.185,177.457 40.284,177.46 38.384,177.461C35.514,177.463 32.644,177.494 29.775,177.443C28.928,177.428 28.441,177.671 28.011,178.435C25.763,182.429 23.45,186.385 21.157,190.352C20.99,190.64 20.808,190.918 20.62,191.221C20.308,191.033 20.033,190.868 19.658,190.642C22.291,186.076 24.927,181.508 27.594,176.884C24.947,172.295 22.309,167.722 19.653,163.117C19.978,162.914 20.247,162.746 20.568,162.546C20.644,162.633 20.756,162.722 20.822,162.837C23.08,166.74 25.333,170.644 27.587,174.549C27.791,174.903 28.027,175.244 28.197,175.615C28.428,176.115 28.765,176.365 29.329,176.298C29.587,176.268 29.851,176.293 30.112,176.293L44.469,176.293ZM127.515,177.462L140.931,177.442C141.751,177.434 142.196,177.712 142.593,178.412C144.872,182.431 147.197,186.424 149.509,190.423C149.668,190.699 149.858,190.956 150.032,191.22C150.374,191.004 150.647,190.832 150.962,190.632C148.305,186.027 145.665,181.45 143.031,176.883C145.709,172.238 148.346,167.665 150.983,163.092C150.599,162.877 150.32,162.721 149.982,162.531C149.741,162.945 149.496,163.359 149.257,163.775C147.022,167.647 144.771,171.511 142.566,175.399C142.187,176.066 141.764,176.317 140.991,176.311C136.444,176.274 131.897,176.292 127.351,176.292L126.146,176.292L126.146,177.462L127.515,177.462ZM165.501,176.279L157.539,162.504C157.179,162.724 156.905,162.892 156.555,163.106C159.206,167.7 161.843,172.272 164.502,176.883C161.846,181.487 159.208,186.06 156.564,190.642C156.936,190.86 157.233,191.035 157.546,191.218C157.744,190.889 157.901,190.637 158.05,190.38C160.343,186.412 162.652,182.454 164.907,178.465C165.326,177.723 165.779,177.43 166.651,177.439C171.123,177.488 175.595,177.462 180.067,177.462L181.387,177.462L181.387,176.279L165.501,176.279ZM97.041,176.271L89.092,162.514C88.726,162.736 88.432,162.913 88.106,163.111C90.779,167.749 93.417,172.323 96.047,176.885C93.374,181.519 90.751,186.065 88.112,190.64C88.462,190.845 88.762,191.018 89.09,191.21C89.287,190.886 89.465,190.605 89.631,190.317C91.924,186.349 94.231,182.39 96.489,178.402C96.889,177.698 97.344,177.435 98.158,177.442C102.63,177.482 107.103,177.462 111.574,177.462L112.903,177.462L112.903,176.271L97.041,176.271ZM210.838,177.451C211.013,177.193 211.226,177.014 211.208,176.863C211.192,176.718 210.933,176.496 210.786,176.501C210.651,176.505 210.421,176.763 210.42,176.91C210.418,177.061 210.644,177.215 210.838,177.451ZM5.475,177.451C5.65,177.193 5.863,177.015 5.845,176.863C5.829,176.718 5.571,176.497 5.423,176.501C5.288,176.505 5.058,176.763 5.056,176.91C5.055,177.061 5.281,177.215 5.475,177.451ZM73.929,177.451C74.106,177.191 74.319,177.013 74.3,176.864C74.283,176.717 74.027,176.496 73.879,176.5C73.743,176.504 73.514,176.762 73.511,176.909C73.51,177.06 73.735,177.214 73.929,177.451ZM142.387,176.328C142.191,176.558 141.955,176.711 141.96,176.857C141.965,177.013 142.198,177.16 142.329,177.311C142.48,177.177 142.725,177.06 142.751,176.906C142.775,176.765 142.56,176.585 142.387,176.328ZM96.756,176.33C96.556,176.56 96.32,176.713 96.323,176.86C96.326,177.013 96.561,177.16 96.694,177.31C96.843,177.176 97.086,177.059 97.113,176.905C97.138,176.766 96.925,176.586 96.756,176.33ZM279.833,176.917C279.597,176.721 279.444,176.495 279.297,176.498C279.143,176.501 278.994,176.727 278.843,176.855C278.973,177.007 279.088,177.259 279.24,177.282C279.385,177.305 279.568,177.091 279.833,176.917ZM165.74,176.91C165.505,176.716 165.349,176.49 165.204,176.497C165.048,176.504 164.9,176.728 164.75,176.858C164.883,177.008 165,177.257 165.151,177.281C165.297,177.302 165.476,177.088 165.74,176.91ZM234.196,176.907C233.958,176.715 233.801,176.49 233.656,176.498C233.499,176.507 233.353,176.731 233.203,176.861C233.337,177.011 233.456,177.258 233.608,177.281C233.754,177.301 233.932,177.086 234.196,176.907ZM28.83,176.848C28.573,176.683 28.393,176.477 28.247,176.499C28.096,176.521 27.977,176.764 27.846,176.91C27.993,177.044 28.142,177.279 28.292,177.281C28.441,177.283 28.595,177.051 28.83,176.848ZM230.111,157.691L243.64,157.671C244.405,157.665 244.842,157.891 245.226,158.569C247.485,162.557 249.791,166.518 252.084,170.486C252.28,170.827 252.495,171.157 252.694,171.482C253.048,171.259 253.319,171.088 253.648,170.881C250.997,166.285 248.358,161.709 245.722,157.139C248.396,152.506 251.031,147.937 253.666,143.366C253.268,143.144 252.992,142.99 252.673,142.813C252.459,143.17 252.245,143.516 252.04,143.869C249.767,147.805 247.479,151.734 245.238,155.688C244.859,156.356 244.438,156.606 243.664,156.601C239.117,156.562 234.57,156.581 230.022,156.581L228.832,156.581L228.832,157.691L230.111,157.691ZM161.611,157.692L175.141,157.669C175.954,157.662 176.404,157.916 176.806,158.627C179.044,162.584 181.332,166.512 183.606,170.449C183.809,170.801 184.031,171.141 184.239,171.478C184.564,171.28 184.843,171.111 185.199,170.893C182.56,166.318 179.922,161.741 177.27,157.141C179.926,152.536 182.563,147.961 185.203,143.382C184.819,143.164 184.524,142.995 184.202,142.813C181.527,147.44 178.885,152.012 176.236,156.592L160.366,156.592L160.366,157.692L161.611,157.692ZM24.701,157.692L38.231,157.669C39.044,157.662 39.495,157.915 39.897,158.626C42.135,162.584 44.424,166.511 46.697,170.448C46.9,170.8 47.122,171.14 47.33,171.478C47.655,171.28 47.933,171.111 48.29,170.893C45.652,166.318 43.013,161.741 40.362,157.141C43.015,152.537 45.654,147.961 48.29,143.39C47.93,143.167 47.653,142.996 47.309,142.785C44.619,147.439 41.976,152.011 39.328,156.592L23.458,156.592L23.458,157.692L24.701,157.692ZM93.217,157.691L106.858,157.674C107.54,157.67 107.932,157.888 108.266,158.487C109.442,160.603 110.676,162.688 111.887,164.786C113.171,167.01 114.455,169.234 115.75,171.477C116.078,171.289 116.353,171.131 116.753,170.904C114.083,166.275 111.444,161.7 108.815,157.14C111.492,152.497 114.126,147.93 116.757,143.368C116.349,143.139 116.075,142.986 115.765,142.811C115.543,143.181 115.329,143.528 115.125,143.882C112.963,147.624 110.817,151.376 108.636,155.108C107.591,156.894 108.2,156.566 106.07,156.576C101.486,156.595 96.901,156.583 92.316,156.587C92.181,156.587 92.044,156.63 91.931,156.65L91.931,157.691L93.217,157.691ZM62.823,156.562L54.855,142.777C54.509,142.997 54.236,143.172 53.885,143.396C56.52,147.967 59.157,152.542 61.808,157.14C59.153,161.746 56.516,166.322 53.88,170.893C54.246,171.114 54.523,171.28 54.848,171.475C55.057,171.132 55.275,170.789 55.479,170.438C57.752,166.501 60.041,162.573 62.278,158.616C62.683,157.9 63.144,157.662 63.951,157.669C68.461,157.709 72.971,157.691 77.481,157.691L78.708,157.691L78.708,156.562L62.823,156.562ZM199.733,156.563L191.765,142.777C191.418,142.998 191.146,143.173 190.793,143.397C193.428,147.967 196.067,152.542 198.717,157.14C196.062,161.746 193.424,166.322 190.789,170.894C191.154,171.114 191.432,171.28 191.756,171.475C191.965,171.132 192.184,170.79 192.387,170.438C194.66,166.501 196.951,162.574 199.187,158.616C199.591,157.901 200.052,157.662 200.86,157.67C205.369,157.709 209.88,157.69 214.391,157.691L215.617,157.691L215.617,156.563L199.733,156.563ZM131.28,156.566L123.318,142.791C122.972,143.001 122.68,143.177 122.33,143.388C124.993,148.004 127.631,152.575 130.263,157.139C127.598,161.763 124.975,166.31 122.336,170.888C122.689,171.101 122.981,171.277 123.305,171.472C123.499,171.154 123.678,170.872 123.844,170.584C126.156,166.583 128.483,162.591 130.761,158.571C131.145,157.892 131.582,157.645 132.347,157.672C133.911,157.727 135.478,157.689 137.043,157.689C140.286,157.688 143.529,157.689 146.771,157.685C146.907,157.684 147.042,157.637 147.178,157.612L147.178,156.566L131.28,156.566ZM268.182,156.555L260.22,142.779C259.863,143.003 259.59,143.175 259.244,143.393C261.871,147.947 264.492,152.492 267.173,157.139C264.512,161.754 261.876,166.328 259.243,170.897C259.617,171.118 259.894,171.28 260.218,171.471C260.427,171.125 260.644,170.781 260.848,170.428C263.029,166.653 265.195,162.87 267.391,159.103C268.374,157.417 267.829,157.701 269.885,157.694L282.857,157.692L284.07,157.692L284.07,156.555L268.182,156.555ZM130.909,157.654C131.11,157.428 131.301,157.298 131.344,157.131C131.367,157.041 131.127,156.772 131.031,156.783C130.857,156.806 130.619,156.948 130.566,157.096C130.528,157.206 130.746,157.404 130.909,157.654ZM39.619,156.62C39.468,156.876 39.306,157.038 39.299,157.204C39.295,157.304 39.564,157.521 39.656,157.495C39.824,157.445 39.952,157.255 40.097,157.125C39.963,156.983 39.829,156.841 39.619,156.62ZM245.603,157.189C245.353,156.993 245.196,156.774 245.054,156.784C244.902,156.794 244.765,157.019 244.623,157.151C244.739,157.273 244.855,157.494 244.972,157.494C245.144,157.494 245.317,157.337 245.603,157.189ZM176.577,156.619C176.399,156.861 176.223,157.006 176.197,157.173C176.182,157.269 176.437,157.514 176.531,157.494C176.704,157.458 176.848,157.278 177.004,157.159C176.884,157.008 176.764,156.856 176.577,156.619ZM62.541,156.621C62.337,156.844 62.204,156.988 62.071,157.131C62.219,157.26 62.351,157.447 62.52,157.493C62.612,157.517 62.879,157.295 62.873,157.197C62.862,157.031 62.698,156.873 62.541,156.621ZM267.85,156.621C267.67,156.863 267.556,157.017 267.443,157.17C267.6,157.286 267.747,157.463 267.92,157.493C268.015,157.509 268.264,157.258 268.247,157.163C268.217,156.996 268.036,156.857 267.85,156.621ZM199.967,157.094C199.684,156.942 199.514,156.783 199.343,156.782C199.224,156.782 199.104,156.998 198.985,157.117C199.125,157.25 199.258,157.477 199.409,157.489C199.552,157.501 199.712,157.286 199.967,157.094ZM108.662,157.282C108.501,157.06 108.418,156.834 108.308,156.822C108.134,156.802 107.942,156.921 107.758,156.981C107.838,157.154 107.881,157.421 108.009,157.472C108.146,157.527 108.366,157.379 108.662,157.282ZM287.885,151.176C287.518,151.397 287.24,151.564 286.898,151.77C284.257,147.201 281.613,142.628 278.935,137.995L263.051,137.995L263.051,136.833L264.258,136.833C268.803,136.834 273.347,136.814 277.891,136.853C278.674,136.86 279.09,136.585 279.465,135.925C281.729,131.943 284.031,127.984 286.322,124.018C286.507,123.699 286.705,123.387 286.9,123.066C287.222,123.246 287.502,123.402 287.885,123.617C285.254,128.18 282.623,132.746 279.94,137.397C282.569,141.955 285.205,146.527 287.885,151.176ZM58.978,137.977L57.699,137.977L57.699,136.91C57.854,136.887 58.026,136.839 58.197,136.839C62.481,136.834 66.765,136.838 71.048,136.829C71.863,136.828 72.824,137.033 73.451,136.675C74.077,136.318 74.39,135.386 74.798,134.683C76.854,131.14 78.897,127.589 80.945,124.043C81.13,123.723 81.326,123.409 81.546,123.043C81.917,123.272 82.19,123.441 82.512,123.641C79.867,128.226 77.228,132.803 74.576,137.397C77.238,142.011 79.874,146.584 82.517,151.166C82.17,151.383 81.898,151.554 81.556,151.769C81.353,151.434 81.139,151.096 80.94,150.75C78.779,147.01 76.638,143.259 74.456,139.531C73.336,137.619 74.012,137.996 71.716,137.983C67.471,137.96 63.225,137.976 58.978,137.977ZM126.139,137.976L126.139,136.834L127.382,136.834C131.889,136.834 136.396,136.815 140.903,136.852C141.709,136.859 142.173,136.613 142.576,135.901C144.814,131.947 147.101,128.022 149.372,124.088C149.558,123.766 149.751,123.45 149.979,123.069C150.294,123.244 150.594,123.41 150.976,123.622C148.339,128.195 145.702,132.766 143.032,137.398C145.673,141.977 148.308,146.548 150.972,151.167C150.63,151.375 150.337,151.553 149.988,151.767C147.335,147.178 144.692,142.606 142.016,137.976L126.139,137.976ZM195.919,137.977L209.552,137.961C210.236,137.957 210.618,138.18 210.953,138.776C212.336,141.244 213.77,143.684 215.185,146.135C216.264,148.002 217.345,149.869 218.442,151.765C218.785,151.559 219.078,151.384 219.431,151.173C216.77,146.56 214.133,141.989 211.486,137.398C214.152,132.777 216.79,128.202 219.428,123.631C219.082,123.424 218.802,123.257 218.45,123.047C218.216,123.437 218.021,123.752 217.836,124.072C215.565,128.007 213.278,131.932 211.04,135.885C210.64,136.593 210.188,136.859 209.374,136.852C204.867,136.814 200.361,136.834 195.854,136.833L194.625,136.833L194.625,137.977L195.919,137.977ZM181.395,137.976L181.395,136.834L180.152,136.834C175.645,136.834 171.139,136.815 166.632,136.853C165.825,136.86 165.361,136.617 164.958,135.904C162.722,131.95 160.434,128.025 158.162,124.091C157.96,123.74 157.746,123.396 157.538,123.051C157.2,123.249 156.92,123.414 156.558,123.627C159.238,128.274 161.876,132.846 164.501,137.398C161.818,142.054 159.185,146.622 156.551,151.191C156.943,151.411 157.219,151.569 157.552,151.757L165.517,137.976L181.395,137.976ZM112.941,137.978L112.941,136.833L111.701,136.833C107.194,136.834 102.687,136.815 98.181,136.852C97.375,136.859 96.91,136.622 96.506,135.907C94.25,131.921 91.942,127.964 89.651,123.997C89.468,123.679 89.27,123.368 89.077,123.048C88.732,123.263 88.439,123.447 88.117,123.649C90.782,128.27 93.42,132.843 96.048,137.398C93.365,142.051 90.73,146.619 88.096,151.188C88.485,151.409 88.763,151.566 89.098,151.756L97.061,137.978L112.941,137.978ZM44.522,137.931L44.461,136.834L43.17,136.834C38.664,136.834 34.158,136.815 29.651,136.853C28.874,136.859 28.448,136.604 28.072,135.936C26.298,132.789 24.476,129.671 22.67,126.543C22.002,125.385 21.329,124.229 20.648,123.053C20.315,123.242 20.037,123.399 19.645,123.62C22.314,128.245 24.953,132.821 27.593,137.398C24.924,142.027 22.288,146.6 19.65,151.176C20.034,151.397 20.327,151.567 20.647,151.75L28.636,137.931L44.522,137.931ZM249.845,137.978L249.845,136.834C249.394,136.834 248.987,136.833 248.581,136.834C244.074,136.834 239.566,136.814 235.061,136.853C234.244,136.859 233.799,136.588 233.399,135.881C231.144,131.896 228.837,127.939 226.545,123.973C226.363,123.659 226.167,123.355 225.98,123.05C225.635,123.257 225.353,123.425 225.015,123.629C227.653,128.204 230.293,132.779 232.955,137.395C230.296,142.012 227.649,146.604 225.009,151.187C225.415,151.418 225.687,151.572 225.996,151.748C226.219,151.375 226.433,151.028 226.636,150.675C228.908,146.741 231.194,142.815 233.434,138.862C233.814,138.191 234.242,137.953 235.01,137.959C239.555,137.995 244.099,137.977 248.644,137.978L249.845,137.978ZM142.389,137.943C142.56,137.691 142.775,137.512 142.751,137.373C142.725,137.222 142.473,137 142.331,137.009C142.191,137.018 141.969,137.271 141.961,137.423C141.955,137.564 142.19,137.715 142.389,137.943ZM233.665,137.942C233.834,137.691 234.046,137.513 234.022,137.374C233.997,137.223 233.744,137 233.607,137.01C233.463,137.023 233.24,137.272 233.233,137.424C233.228,137.564 233.464,137.714 233.665,137.942ZM74.467,137.434C74.232,137.234 74.08,137.005 73.932,137.006C73.78,137.007 73.632,137.236 73.482,137.365C73.613,137.512 73.729,137.755 73.876,137.777C74.025,137.798 74.205,137.597 74.467,137.434ZM97.287,137.367C97.024,137.195 96.845,136.986 96.701,137.008C96.549,137.031 96.43,137.275 96.297,137.422C96.447,137.55 96.594,137.771 96.748,137.777C96.893,137.783 97.048,137.56 97.287,137.367ZM210.846,136.842C210.649,137.069 210.419,137.217 210.419,137.364C210.419,137.512 210.646,137.769 210.782,137.775C210.927,137.781 211.186,137.567 211.207,137.422C211.23,137.277 211.017,137.097 210.846,136.842ZM5.481,136.842C5.284,137.071 5.055,137.219 5.056,137.368C5.057,137.514 5.285,137.77 5.421,137.775C5.567,137.781 5.825,137.565 5.845,137.419C5.866,137.275 5.653,137.097 5.481,136.842ZM279.231,136.841C279.062,137.094 278.851,137.272 278.872,137.419C278.89,137.563 279.149,137.782 279.29,137.774C279.43,137.765 279.657,137.514 279.658,137.367C279.66,137.219 279.429,137.07 279.231,136.841ZM28.306,136.845C28.108,137.068 27.878,137.215 27.874,137.366C27.87,137.51 28.1,137.766 28.239,137.774C28.382,137.782 28.64,137.567 28.662,137.422C28.684,137.278 28.474,137.098 28.306,136.845ZM165.215,136.845C165.017,137.068 164.786,137.215 164.782,137.366C164.779,137.51 165.009,137.766 165.148,137.774C165.291,137.782 165.548,137.567 165.57,137.422C165.592,137.278 165.383,137.098 165.215,136.845ZM93.141,118.236L106.667,118.208C107.546,118.197 107.99,118.498 108.406,119.235C110.53,122.998 112.708,126.73 114.868,130.473C115.164,130.985 115.466,131.494 115.772,132.018C116.127,131.778 116.414,131.584 116.725,131.373C114.069,126.766 111.448,122.222 108.814,117.655C111.475,113.042 114.109,108.476 116.742,103.912C116.361,103.689 116.085,103.526 115.769,103.341C115.563,103.679 115.364,103.991 115.18,104.311C112.962,108.149 110.705,111.965 108.559,115.843C108.005,116.844 107.377,117.143 106.28,117.124C102.556,117.057 98.828,117.096 95.102,117.098C94.134,117.099 93.166,117.109 92.197,117.126C92.1,117.128 92.006,117.202 91.91,117.244L91.91,118.236L93.141,118.236ZM24.688,118.235L38.212,118.208C39.09,118.197 39.536,118.497 39.953,119.234C42.094,123.029 44.291,126.794 46.469,130.569C46.746,131.049 47.033,131.524 47.323,132.015C47.669,131.78 47.959,131.584 48.272,131.373C45.615,126.765 42.995,122.221 40.361,117.655C43.023,113.041 45.656,108.475 48.288,103.912C47.906,103.688 47.63,103.525 47.315,103.34C47.108,103.68 46.91,103.991 46.725,104.311C44.489,108.181 42.222,112.034 40.044,115.938C39.533,116.855 38.945,117.141 37.936,117.12C34.995,117.057 32.05,117.095 29.107,117.099C27.319,117.101 25.531,117.11 23.743,117.125C23.647,117.125 23.551,117.202 23.456,117.243L23.456,118.235L24.688,118.235ZM230.123,118.236L243.537,118.212C244.383,118.204 244.879,118.427 245.301,119.199C246.583,121.554 247.959,123.858 249.3,126.181C250.415,128.113 251.533,130.044 252.673,132.014C253.018,131.786 253.31,131.594 253.637,131.377C250.98,126.77 248.343,122.197 245.723,117.655C248.405,113.007 251.025,108.465 253.644,103.925C253.291,103.709 253.013,103.538 252.674,103.33C252.469,103.672 252.312,103.924 252.164,104.181C249.872,108.148 247.562,112.105 245.308,116.093C244.889,116.835 244.435,117.129 243.563,117.12C239.092,117.072 234.62,117.098 230.15,117.097C229.715,117.097 229.28,117.097 228.843,117.097L228.843,118.236L230.123,118.236ZM191.749,132.011C191.395,131.776 191.125,131.596 190.804,131.381C193.439,126.812 196.059,122.268 198.719,117.655C196.08,113.081 193.44,108.506 190.798,103.928C191.129,103.721 191.408,103.547 191.743,103.339C191.917,103.612 192.104,103.88 192.266,104.161C194.578,108.16 196.902,112.152 199.179,116.17C199.581,116.878 200.039,117.126 200.852,117.118C205.36,117.077 209.869,117.098 214.376,117.098L215.62,117.098L215.62,118.15C215.473,118.175 215.301,118.229 215.129,118.23C211.85,118.234 208.572,118.232 205.293,118.232C203.728,118.232 202.163,118.259 200.598,118.218C199.955,118.201 199.598,118.433 199.281,118.989C196.955,123.065 194.597,127.123 192.248,131.187C192.1,131.443 191.942,131.694 191.749,132.011ZM161.631,118.236L175.156,118.213C175.971,118.205 176.422,118.463 176.821,119.169C179.059,123.124 181.347,127.05 183.619,130.986C183.818,131.331 184.031,131.667 184.238,132.008C184.585,131.782 184.856,131.605 185.188,131.389C182.554,126.82 179.933,122.277 177.268,117.656C179.935,113.033 182.557,108.488 185.194,103.916C184.842,103.713 184.542,103.541 184.213,103.351C184.015,103.676 183.839,103.958 183.672,104.246C181.38,108.213 179.074,112.173 176.814,116.157C176.415,116.862 175.959,117.125 175.144,117.117C170.675,117.077 166.203,117.098 161.732,117.097L160.376,117.097L160.376,118.236L161.631,118.236ZM78.68,117.098C78.705,117.478 78.725,117.789 78.75,118.165C78.532,118.191 78.357,118.231 78.182,118.231C73.487,118.234 68.793,118.261 64.099,118.207C63.153,118.197 62.635,118.482 62.173,119.306C60.058,123.073 57.875,126.803 55.716,130.545C55.438,131.026 55.149,131.501 54.853,132.002C54.537,131.802 54.267,131.629 53.892,131.391C56.521,126.83 59.153,122.263 61.809,117.656C59.171,113.082 56.549,108.537 53.9,103.945C54.217,103.734 54.505,103.542 54.842,103.318C55.05,103.659 55.248,103.971 55.433,104.29C57.725,108.257 60.03,112.216 62.29,116.201C62.669,116.872 63.1,117.121 63.869,117.115C68.377,117.08 72.886,117.098 77.395,117.098L78.68,117.098ZM147.14,117.097C147.164,117.484 147.181,117.795 147.201,118.167C146.978,118.193 146.802,118.231 146.625,118.231C141.931,118.234 137.237,118.261 132.542,118.208C131.595,118.197 131.083,118.494 130.622,119.314C128.45,123.177 126.211,127.004 123.996,130.843C123.774,131.227 123.541,131.604 123.302,132.001C122.986,131.797 122.715,131.622 122.348,131.386C124.978,126.823 127.611,122.256 130.262,117.655C127.62,113.073 124.998,108.529 122.338,103.918C122.708,103.694 122.986,103.526 123.325,103.32C123.654,103.887 123.971,104.431 124.285,104.976C126.446,108.718 128.623,112.45 130.749,116.212C131.131,116.889 131.572,117.12 132.334,117.114C136.804,117.081 141.276,117.098 145.747,117.097L147.14,117.097ZM284.075,117.097L284.075,118.151C283.926,118.175 283.753,118.229 283.581,118.23C280.229,118.234 276.875,118.232 273.522,118.232C272.032,118.232 270.54,118.261 269.051,118.218C268.406,118.2 268.05,118.436 267.734,118.99C265.408,123.067 263.051,127.125 260.702,131.189C260.554,131.445 260.395,131.695 260.217,131.987C259.894,131.787 259.6,131.606 259.252,131.391C261.894,126.81 264.515,122.266 267.173,117.656C264.533,113.08 261.894,108.506 259.254,103.928C259.588,103.719 259.866,103.546 260.207,103.333C260.397,103.641 260.596,103.946 260.778,104.26C263.07,108.227 265.376,112.186 267.635,116.172C268.038,116.882 268.497,117.126 269.309,117.118C273.78,117.077 278.251,117.098 282.721,117.097L284.075,117.097ZM199.435,118.197C199.6,117.948 199.806,117.773 199.786,117.633C199.763,117.487 199.511,117.264 199.378,117.277C199.236,117.29 199.019,117.535 199.014,117.685C199.009,117.825 199.239,117.973 199.435,118.197ZM130.979,118.196C131.144,117.949 131.35,117.776 131.331,117.633C131.311,117.488 131.056,117.265 130.923,117.277C130.782,117.29 130.564,117.534 130.559,117.685C130.554,117.824 130.784,117.972 130.979,118.196ZM40.229,117.688C40,117.493 39.852,117.268 39.706,117.27C39.557,117.272 39.412,117.498 39.265,117.626C39.393,117.771 39.508,118.013 39.654,118.033C39.798,118.054 39.975,117.853 40.229,117.688ZM63.044,117.624C62.789,117.456 62.611,117.25 62.472,117.272C62.322,117.296 62.207,117.536 62.077,117.681C62.224,117.808 62.368,118.028 62.519,118.033C62.662,118.037 62.813,117.816 63.044,117.624ZM245.595,117.626C245.337,117.456 245.162,117.25 245.019,117.27C244.871,117.291 244.756,117.534 244.627,117.68C244.774,117.807 244.916,118.029 245.067,118.033C245.211,118.038 245.363,117.816 245.595,117.626ZM108.162,117.11C107.969,117.336 107.743,117.484 107.746,117.628C107.749,117.776 107.97,118.027 108.105,118.032C108.247,118.04 108.498,117.823 108.519,117.678C108.54,117.536 108.331,117.361 108.162,117.11ZM176.618,117.11C176.425,117.334 176.198,117.482 176.2,117.626C176.201,117.773 176.423,118.025 176.557,118.032C176.699,118.04 176.952,117.824 176.972,117.679C176.994,117.537 176.786,117.361 176.618,117.11ZM267.892,117.112C267.697,117.336 267.469,117.482 267.469,117.628C267.469,117.772 267.691,118.022 267.829,118.03C267.967,118.039 268.218,117.824 268.241,117.678C268.262,117.538 268.057,117.362 267.892,117.112ZM97.04,97.297L89.085,83.538C88.715,83.765 88.443,83.932 88.105,84.14C90.757,88.74 93.394,93.314 96.046,97.913C93.387,102.527 90.751,107.099 88.117,111.668C88.476,111.889 88.753,112.058 89.078,112.257C89.277,111.931 89.475,111.62 89.659,111.301C91.934,107.365 94.227,103.441 96.459,99.481C96.884,98.728 97.355,98.463 98.213,98.472C102.686,98.516 107.158,98.493 111.63,98.493L112.929,98.493L112.929,97.297L97.04,97.297ZM28.584,97.297L20.633,83.538C20.26,83.767 19.987,83.935 19.649,84.142C22.304,88.742 24.941,93.316 27.593,97.914C24.932,102.529 22.296,107.1 19.662,111.669C20.023,111.89 20.3,112.059 20.624,112.257C20.823,111.93 21.021,111.619 21.205,111.299C23.479,107.364 25.773,103.44 28.006,99.48C28.431,98.726 28.902,98.464 29.761,98.473C34.232,98.517 38.705,98.493 43.177,98.493L44.496,98.493L44.496,97.297L28.584,97.297ZM233.949,97.302L225.995,83.536C225.628,83.762 225.353,83.929 225.012,84.139C227.664,88.737 230.302,93.311 232.956,97.913C230.297,102.524 227.661,107.096 225.025,111.667C225.381,111.886 225.659,112.057 225.986,112.257C226.182,111.937 226.382,111.626 226.565,111.307C228.857,107.339 231.163,103.378 233.425,99.392C233.804,98.723 234.232,98.47 235.005,98.476C239.513,98.511 244.023,98.493 248.533,98.493L249.839,98.493L249.839,97.302L233.949,97.302ZM59.128,98.493L72.432,98.47C73.309,98.46 73.756,98.763 74.173,99.502C76.411,103.458 78.702,107.384 80.976,111.319C81.159,111.636 81.357,111.944 81.549,112.257C81.884,112.049 82.162,111.876 82.507,111.663C79.868,107.089 77.23,102.514 74.576,97.915C77.239,93.299 79.875,88.727 82.532,84.122C82.151,83.914 81.853,83.751 81.52,83.569C78.852,88.185 76.209,92.755 73.561,97.334L57.724,97.334L57.724,98.493L59.128,98.493ZM264.386,98.493L277.576,98.465C278.625,98.449 279.161,98.817 279.655,99.697C281.845,103.594 284.104,107.452 286.341,111.323C286.524,111.639 286.723,111.945 286.913,112.256C287.252,112.046 287.529,111.873 287.87,111.662C285.23,107.086 282.591,102.511 279.939,97.915C282.603,93.296 285.24,88.724 287.894,84.121C287.51,83.913 287.212,83.751 286.881,83.572C284.212,88.189 281.569,92.758 278.923,97.336L263.029,97.336C263.048,97.748 263.062,98.088 263.081,98.493L264.386,98.493ZM196.041,98.493L209.233,98.468C210.192,98.456 210.685,98.787 211.143,99.6C213.354,103.528 215.631,107.419 217.887,111.322C218.07,111.638 218.268,111.945 218.459,112.256C218.796,112.047 219.074,111.874 219.416,111.662C216.776,107.086 214.137,102.511 211.486,97.915C214.149,93.296 216.785,88.723 219.441,84.12C219.056,83.912 218.758,83.75 218.427,83.57C215.759,88.188 213.116,92.757 210.469,97.336L194.635,97.336L194.635,98.493L196.041,98.493ZM164.503,97.914C161.825,93.273 159.203,88.727 156.554,84.136C156.906,83.928 157.2,83.754 157.546,83.549C158.666,85.483 159.765,87.383 160.864,89.283C162.206,91.606 163.589,93.906 164.862,96.267C165.322,97.117 165.865,97.357 166.794,97.347C171.228,97.298 175.664,97.325 180.098,97.324L181.376,97.324L181.376,98.382C181.265,98.411 181.132,98.478 180.998,98.479C179.21,98.488 177.42,98.491 175.632,98.492C172.687,98.493 169.742,98.532 166.799,98.47C165.862,98.45 165.335,98.726 164.866,99.561C162.66,103.492 160.38,107.382 158.123,111.284C157.938,111.604 157.74,111.916 157.534,112.254C157.218,112.064 156.942,111.899 156.566,111.674C159.2,107.109 161.834,102.541 164.503,97.914ZM127.373,98.493L140.564,98.462C141.643,98.445 142.229,98.767 142.752,99.703C144.954,103.636 147.237,107.523 149.492,111.427C149.656,111.708 149.841,111.977 150.016,112.252C150.35,112.043 150.627,111.869 150.961,111.662C148.32,107.082 145.68,102.505 143.031,97.915C145.697,93.291 148.334,88.718 150.985,84.122C150.596,83.912 150.297,83.751 149.97,83.573C147.315,88.169 144.689,92.714 142.027,97.32L126.142,97.32L126.142,98.493L127.373,98.493ZM142.383,98.482C142.56,98.222 142.775,98.045 142.755,97.896C142.737,97.749 142.481,97.528 142.333,97.532C142.198,97.535 141.968,97.793 141.965,97.941C141.964,98.092 142.189,98.246 142.383,98.482ZM96.688,98.48C96.885,98.247 97.114,98.095 97.114,97.943C97.115,97.797 96.885,97.537 96.75,97.532C96.603,97.528 96.345,97.745 96.325,97.893C96.304,98.04 96.516,98.22 96.688,98.48ZM233.658,98.48C233.832,98.221 234.044,98.044 234.026,97.894C234.01,97.749 233.749,97.524 233.608,97.533C233.467,97.542 233.238,97.793 233.236,97.943C233.233,98.092 233.462,98.245 233.658,98.48ZM5.479,97.361C5.282,97.59 5.047,97.745 5.052,97.89C5.057,98.046 5.29,98.193 5.422,98.343C5.572,98.21 5.816,98.092 5.842,97.938C5.867,97.798 5.652,97.617 5.479,97.361ZM210.842,97.36C210.643,97.592 210.408,97.746 210.415,97.888C210.423,98.045 210.652,98.191 210.785,98.341C210.934,98.209 211.18,98.091 211.206,97.937C211.23,97.797 211.015,97.616 210.842,97.36ZM74.47,97.948C74.239,97.756 74.086,97.53 73.933,97.53C73.782,97.53 73.631,97.758 73.48,97.886C73.611,98.038 73.727,98.291 73.878,98.315C74.023,98.337 74.205,98.123 74.47,97.948ZM279.832,97.941C279.594,97.748 279.438,97.523 279.29,97.528C279.137,97.533 278.991,97.76 278.841,97.89C278.975,98.041 279.093,98.291 279.244,98.313C279.39,98.334 279.569,98.119 279.832,97.941ZM165.741,97.946C165.511,97.755 165.356,97.528 165.207,97.53C165.053,97.532 164.902,97.759 164.751,97.887C164.883,98.038 164.998,98.289 165.15,98.313C165.295,98.335 165.475,98.122 165.741,97.946ZM28.828,97.874C28.571,97.711 28.389,97.506 28.243,97.529C28.092,97.552 27.975,97.796 27.844,97.944C27.994,98.076 28.142,98.31 28.294,98.311C28.443,98.311 28.595,98.078 28.828,97.874ZM230.081,78.723L243.611,78.701C244.43,78.693 244.869,78.965 245.27,79.671C247.506,83.628 249.795,87.556 252.069,91.493C252.27,91.84 252.488,92.178 252.696,92.516C253.029,92.304 253.303,92.13 253.647,91.91C251.01,87.338 248.369,82.76 245.725,78.173C248.386,73.558 251.024,68.981 253.66,64.408C253.288,64.19 253.01,64.026 252.668,63.826C250.026,68.398 247.38,72.974 244.699,77.612L228.822,77.612L228.822,78.723L230.081,78.723ZM93.168,78.722L106.81,78.702C107.548,78.695 107.94,78.941 108.298,79.572C110.56,83.559 112.866,87.521 115.158,91.49C115.36,91.837 115.578,92.176 115.785,92.515C116.117,92.305 116.392,92.132 116.739,91.914C114.101,87.34 111.461,82.761 108.815,78.172C111.474,73.559 114.113,68.983 116.749,64.409C116.379,64.19 116.102,64.026 115.759,63.824C113.117,68.395 110.473,72.971 107.79,77.61L91.912,77.61L91.912,78.722L93.168,78.722ZM24.78,78.722L38.197,78.695C39.076,78.685 39.521,78.985 39.937,79.723C41.929,83.262 43.977,86.769 46.008,90.286C46.435,91.025 46.87,91.76 47.312,92.514C47.656,92.302 47.948,92.122 48.285,91.913C45.623,87.294 42.986,82.721 40.361,78.171C43.035,73.536 45.657,68.99 48.296,64.413C47.933,64.2 47.639,64.029 47.311,63.837C47.08,64.225 46.868,64.573 46.663,64.926C44.427,68.798 42.163,72.655 39.98,76.556C39.508,77.398 38.981,77.718 38.046,77.63C37.197,77.55 36.333,77.612 35.476,77.612C31.6,77.613 27.724,77.614 23.848,77.618C23.713,77.618 23.578,77.653 23.447,77.672L23.447,78.722L24.78,78.722ZM199.727,77.583L191.765,63.81C191.405,64.036 191.134,64.207 190.789,64.423C193.434,69.01 196.071,73.584 198.717,78.171C196.056,82.788 193.42,87.361 190.785,91.933C191.164,92.151 191.443,92.312 191.766,92.499C191.976,92.153 192.192,91.809 192.396,91.456C194.632,87.584 196.892,83.725 199.078,79.826C199.54,79.004 200.035,78.685 200.988,78.696C205.46,78.75 209.933,78.722 214.405,78.723L215.614,78.723L215.614,77.583L199.727,77.583ZM62.84,77.622L54.853,63.805C54.495,64.039 54.204,64.229 53.888,64.436C56.546,69.047 59.17,73.595 61.809,78.171C59.157,82.771 56.518,87.349 53.877,91.926C54.258,92.145 54.554,92.316 54.869,92.498C55.114,92.083 55.324,91.733 55.529,91.379C57.784,87.475 60.055,83.58 62.273,79.654C62.677,78.942 63.132,78.693 63.943,78.701C68.453,78.741 72.963,78.722 77.474,78.722L78.712,78.722L78.712,77.622L62.84,77.622ZM268.198,77.615L260.225,63.819C259.87,64.043 259.579,64.228 259.248,64.436C261.901,69.034 264.525,73.582 267.173,78.171C264.527,82.757 261.888,87.335 259.247,91.917C259.617,92.135 259.91,92.309 260.231,92.497C260.466,92.1 260.679,91.751 260.882,91.398C263.136,87.493 265.406,83.597 267.626,79.673C268.025,78.968 268.466,78.693 269.285,78.701C273.795,78.742 278.305,78.722 282.816,78.723L284.075,78.723L284.075,77.615L268.198,77.615ZM131.292,77.619L123.318,63.82C122.963,64.042 122.672,64.224 122.339,64.433C124.99,69.029 127.614,73.577 130.263,78.17C127.621,82.754 124.982,87.331 122.338,91.918C122.703,92.134 122.996,92.307 123.317,92.496C123.533,92.135 123.73,91.821 123.915,91.5C126.169,87.595 128.442,83.7 130.659,79.775C131.093,79.005 131.565,78.685 132.482,78.695C136.954,78.75 141.427,78.722 145.901,78.723L147.163,78.723L147.163,77.619L131.292,77.619ZM167.816,78.72L175.418,78.708C176.014,78.701 176.422,78.851 176.653,79.422C176.749,79.662 176.91,79.875 177.04,80.101C179.35,84.103 181.661,88.104 183.973,92.104C184.058,92.25 184.18,92.373 184.273,92.491C184.602,92.283 184.87,92.115 185.192,91.911C182.556,87.338 179.934,82.791 177.27,78.173C179.945,73.533 182.578,68.964 185.211,64.396C184.811,64.173 184.535,64.02 184.206,63.837C183.416,65.205 182.634,66.557 181.852,67.909C180.137,70.877 178.407,73.837 176.722,76.822C176.384,77.419 175.996,77.709 175.314,77.62C175.021,77.582 174.718,77.613 174.42,77.613C169.91,77.613 165.401,77.613 160.89,77.616C160.717,77.616 160.541,77.649 160.383,77.666L160.383,78.72L167.816,78.72ZM108.102,78.688C108.3,78.457 108.426,78.309 108.552,78.162C108.402,78.037 108.262,77.854 108.089,77.811C107.998,77.789 107.738,78.022 107.747,78.122C107.763,78.288 107.934,78.439 108.102,78.688ZM176.557,78.688C176.754,78.457 176.881,78.309 177.007,78.162C176.856,78.037 176.717,77.854 176.545,77.812C176.453,77.789 176.193,78.022 176.202,78.121C176.218,78.287 176.39,78.439 176.557,78.688ZM245.054,78.688C245.228,78.445 245.453,78.26 245.424,78.14C245.387,77.994 245.144,77.842 244.97,77.812C244.875,77.797 244.628,78.054 244.647,78.149C244.68,78.316 244.865,78.453 245.054,78.688ZM62.456,78.685C62.656,78.458 62.847,78.329 62.891,78.162C62.913,78.071 62.674,77.801 62.578,77.813C62.403,77.836 62.164,77.979 62.112,78.127C62.075,78.237 62.292,78.435 62.456,78.685ZM130.385,78.112C130.631,78.31 130.767,78.495 130.931,78.526C131.047,78.548 131.328,78.334 131.316,78.27C131.28,78.098 131.151,77.846 131.016,77.817C130.868,77.785 130.674,77.965 130.385,78.112ZM39.722,77.65C39.52,77.873 39.328,78.001 39.282,78.169C39.257,78.26 39.492,78.535 39.585,78.524C39.76,78.503 40.004,78.365 40.055,78.217C40.095,78.105 39.881,77.905 39.722,77.65ZM199.967,78.125C199.683,77.974 199.514,77.814 199.343,77.813C199.224,77.813 199.104,78.03 198.984,78.149C199.125,78.282 199.258,78.509 199.409,78.521C199.552,78.532 199.712,78.318 199.967,78.125ZM268.421,78.125C268.138,77.974 267.967,77.814 267.797,77.813C267.678,77.813 267.558,78.03 267.438,78.149C267.579,78.282 267.713,78.509 267.863,78.521C268.006,78.532 268.165,78.318 268.421,78.125ZM194.585,59.035L194.585,57.865L195.794,57.865C200.338,57.865 204.883,57.846 209.427,57.883C210.202,57.889 210.629,57.632 211.007,56.966C213.27,52.984 215.573,49.024 217.864,45.059C218.048,44.739 218.245,44.427 218.447,44.095C218.762,44.274 219.038,44.431 219.43,44.653C216.786,49.236 214.137,53.831 211.486,58.431C214.137,63.027 216.76,67.573 219.419,72.183C219.105,72.389 218.819,72.579 218.453,72.817C215.809,68.241 213.166,63.668 210.489,59.035L194.585,59.035ZM81.538,44.099C81.863,44.28 82.144,44.435 82.524,44.648C79.891,49.214 77.258,53.781 74.578,58.429C77.209,62.991 79.845,67.562 82.51,72.184C82.185,72.392 81.895,72.577 81.538,72.805C78.893,68.228 76.25,63.655 73.572,59.022L57.688,59.022L57.688,57.865L58.903,57.865C63.411,57.865 67.918,57.838 72.424,57.889C73.304,57.899 73.75,57.591 74.166,56.856C76.403,52.903 78.692,48.977 80.964,45.044C81.148,44.725 81.346,44.413 81.538,44.099ZM286.9,44.099C287.227,44.282 287.507,44.439 287.885,44.651C285.253,49.216 282.619,53.784 279.94,58.428C282.572,62.994 285.208,67.565 287.872,72.186C287.544,72.394 287.253,72.578 286.898,72.802C284.252,68.226 281.609,63.652 278.932,59.02L263.049,59.02L263.049,57.865L264.269,57.865C268.739,57.865 273.209,57.836 277.678,57.889C278.634,57.9 279.128,57.575 279.589,56.758C281.796,52.83 284.074,48.942 286.329,45.04C286.512,44.722 286.711,44.411 286.9,44.099ZM127.449,59.009L140.969,58.991C141.731,58.985 142.167,59.21 142.55,59.887C144.806,63.873 147.112,67.83 149.403,71.797C149.6,72.138 149.812,72.472 150.01,72.796C150.366,72.576 150.636,72.408 150.973,72.199C148.323,67.604 145.685,63.032 143.031,58.431C145.69,53.821 148.329,49.245 150.968,44.671C150.636,44.467 150.359,44.298 149.999,44.077C149.772,44.455 149.576,44.769 149.391,45.089C147.137,48.991 144.866,52.883 142.648,56.805C142.214,57.572 141.746,57.902 140.826,57.89C136.393,57.836 131.96,57.865 127.528,57.867C127.119,57.868 126.71,57.886 126.302,57.908C126.245,57.911 126.194,57.986 126.161,58.011L126.161,59.009L127.449,59.009ZM44.483,59.008L44.483,57.864L43.224,57.864C38.716,57.865 34.209,57.845 29.702,57.883C28.888,57.891 28.44,57.623 28.039,56.917C25.783,52.931 23.476,48.974 21.185,45.008C21.014,44.712 20.83,44.425 20.654,44.138L20.619,44.08C20.533,44.132 20.451,44.181 20.371,44.23L19.899,44.513C19.819,44.561 19.737,44.611 19.652,44.662C22.305,49.26 24.958,53.86 27.593,58.428C24.902,63.098 22.271,67.662 19.648,72.213C20.027,72.438 20.276,72.585 20.625,72.792C20.853,72.411 21.067,72.064 21.271,71.711C23.542,67.777 25.828,63.851 28.069,59.899C28.448,59.23 28.869,58.982 29.642,58.989C34.185,59.027 38.73,59.008 43.274,59.008L44.483,59.008ZM181.389,59.008L181.389,57.864L180.126,57.864C175.619,57.865 171.112,57.845 166.605,57.883C165.789,57.891 165.343,57.617 164.944,56.912C162.687,52.926 160.381,48.969 158.089,45.003C157.908,44.689 157.711,44.384 157.525,44.08C157.178,44.289 156.899,44.459 156.56,44.663C159.2,49.237 161.839,53.814 164.502,58.429C161.851,63.025 159.214,67.597 156.557,72.203C156.914,72.417 157.206,72.592 157.536,72.789C157.764,72.406 157.978,72.059 158.182,71.706C160.454,67.773 162.741,63.846 164.979,59.894C165.36,59.221 165.788,58.984 166.555,58.99C171.1,59.026 175.644,59.008 180.187,59.008L181.389,59.008ZM112.941,59.012L112.941,57.865L111.705,57.865C107.237,57.865 102.767,57.843 98.297,57.885C97.414,57.893 96.898,57.645 96.449,56.846C94.223,52.887 91.928,48.966 89.655,45.033C89.471,44.714 89.273,44.403 89.076,44.081C88.734,44.294 88.44,44.476 88.115,44.678C90.781,49.298 93.418,53.871 96.048,58.429C93.366,63.079 90.731,67.648 88.097,72.217C88.484,72.437 88.762,72.595 89.098,72.787L97.06,59.012L112.941,59.012ZM249.857,57.865L249.857,58.935C249.717,58.958 249.581,59.002 249.445,59.002C244.975,59.006 240.503,59.099 236.038,58.959C234.416,58.909 233.611,59.457 232.867,60.833C230.845,64.565 228.658,68.204 226.535,71.88C226.368,72.169 226.189,72.45 225.991,72.776C225.673,72.592 225.38,72.421 225.011,72.207C227.661,67.612 230.297,63.04 232.956,58.428C230.303,53.83 227.664,49.254 225.02,44.672C225.344,44.469 225.619,44.297 225.968,44.078C226.157,44.378 226.355,44.676 226.535,44.985C228.808,48.918 231.107,52.837 233.329,56.799C233.799,57.638 234.33,57.898 235.262,57.887C239.694,57.838 244.126,57.865 248.559,57.865L249.857,57.865ZM142.39,58.975C142.561,58.722 142.775,58.543 142.75,58.406C142.725,58.254 142.472,58.031 142.332,58.04C142.191,58.05 141.969,58.302 141.962,58.455C141.955,58.596 142.19,58.747 142.39,58.975ZM73.94,58.974C74.109,58.72 74.321,58.539 74.296,58.402C74.269,58.25 74.015,58.03 73.875,58.04C73.734,58.05 73.514,58.305 73.508,58.458C73.504,58.599 73.739,58.748 73.94,58.974ZM6.013,58.462C5.778,58.264 5.625,58.037 5.475,58.038C5.325,58.039 5.177,58.27 5.028,58.401C5.159,58.545 5.276,58.788 5.425,58.809C5.573,58.829 5.751,58.628 6.013,58.462ZM164.608,58.398C164.847,58.591 165.001,58.813 165.147,58.807C165.301,58.802 165.448,58.581 165.598,58.454C165.466,58.307 165.349,58.062 165.199,58.04C165.053,58.019 164.874,58.226 164.608,58.398ZM233.063,58.398C233.297,58.587 233.452,58.809 233.601,58.807C233.753,58.804 233.902,58.58 234.052,58.454C233.921,58.306 233.804,58.061 233.654,58.039C233.507,58.017 233.328,58.225 233.063,58.398ZM210.846,57.874C210.649,58.101 210.419,58.249 210.419,58.396C210.42,58.542 210.646,58.799 210.782,58.806C210.927,58.812 211.186,58.598 211.207,58.452C211.229,58.308 211.017,58.128 210.846,57.874ZM279.236,57.873C279.064,58.125 278.851,58.301 278.872,58.447C278.889,58.592 279.146,58.813 279.286,58.806C279.427,58.798 279.657,58.549 279.658,58.403C279.661,58.255 279.433,58.103 279.236,57.873ZM28.306,57.876C28.106,58.103 27.874,58.25 27.873,58.397C27.873,58.543 28.1,58.797 28.239,58.805C28.382,58.813 28.64,58.599 28.662,58.453C28.684,58.31 28.474,58.131 28.306,57.876ZM96.76,57.875C96.563,58.099 96.332,58.246 96.328,58.397C96.325,58.54 96.555,58.797 96.693,58.805C96.836,58.812 97.094,58.598 97.116,58.453C97.139,58.309 96.928,58.129 96.76,57.875ZM215.62,38.129L215.62,39.187C215.466,39.211 215.292,39.261 215.12,39.261C211.208,39.265 207.296,39.263 203.384,39.262C202.453,39.262 201.518,39.302 200.59,39.251C199.939,39.215 199.59,39.477 199.276,40.028C197.099,43.846 194.891,47.647 192.693,51.453C192.396,51.967 192.097,52.479 191.762,53.055C191.388,52.803 191.118,52.62 190.805,52.409C193.44,47.839 196.061,43.294 198.719,38.688C196.076,34.108 193.438,29.535 190.799,24.96C191.137,24.749 191.414,24.576 191.755,24.364C191.945,24.674 192.143,24.98 192.325,25.296C194.581,29.198 196.866,33.082 199.062,37.018C199.557,37.902 200.113,38.162 201.083,38.152C205.478,38.101 209.875,38.129 214.272,38.129L215.62,38.129ZM24.698,39.267L37.999,39.235C39.048,39.219 39.582,39.589 40.074,40.465C42.245,44.33 44.483,48.157 46.699,51.996C46.901,52.346 47.119,52.687 47.337,53.045C47.676,52.811 47.963,52.612 48.26,52.407C48.041,52.014 47.863,51.688 47.677,51.366C45.444,47.494 43.228,43.612 40.957,39.762C40.509,39.005 40.454,38.449 40.926,37.656C43.228,33.782 45.456,29.863 47.708,25.958C47.904,25.616 48.079,25.262 48.259,24.922C47.9,24.716 47.624,24.557 47.313,24.379C47.124,24.687 46.943,24.967 46.778,25.255C44.522,29.157 42.244,33.046 40.035,36.974C39.558,37.823 39.049,38.172 38.04,38.157C33.644,38.093 29.248,38.129 24.85,38.129C24.408,38.128 23.964,38.129 23.473,38.129L23.473,39.267L24.698,39.267ZM93.225,39.267L106.749,39.246C107.514,39.24 107.952,39.468 108.336,40.145C110.556,44.067 112.824,47.962 115.078,51.866C115.3,52.25 115.532,52.628 115.779,53.042C116.113,52.816 116.402,52.621 116.725,52.403C114.082,47.821 111.461,43.276 108.815,38.688C111.467,34.091 114.102,29.521 116.737,24.953C116.377,24.735 116.099,24.567 115.77,24.369C115.575,24.688 115.378,24.999 115.194,25.318C112.901,29.286 110.597,33.246 108.336,37.23C107.957,37.898 107.527,38.153 106.755,38.147C102.247,38.112 97.738,38.129 93.23,38.128L91.905,38.128L91.905,39.267L93.225,39.267ZM147.176,38.128L147.176,39.2C146.981,39.224 146.807,39.262 146.63,39.262C141.936,39.264 137.241,39.292 132.547,39.238C131.601,39.227 131.085,39.52 130.624,40.341C128.509,44.109 126.326,47.839 124.168,51.58C123.891,52.062 123.605,52.538 123.311,53.037C122.988,52.829 122.718,52.656 122.346,52.417C124.977,47.856 127.61,43.289 130.263,38.687C127.622,34.107 125,29.563 122.352,24.973C122.674,24.762 122.963,24.572 123.318,24.339C123.652,24.915 123.969,25.458 124.283,26.004C126.443,29.745 128.62,33.478 130.747,37.239C131.129,37.914 131.565,38.151 132.33,38.146C136.801,38.113 141.272,38.129 145.743,38.128L147.176,38.128ZM78.672,38.128C78.7,38.502 78.725,38.81 78.754,39.192C78.543,39.22 78.368,39.261 78.194,39.261C73.836,39.264 69.476,39.263 65.117,39.263C64.819,39.263 64.516,39.298 64.224,39.256C63.217,39.11 62.627,39.5 62.116,40.418C60.054,44.129 57.899,47.789 55.776,51.467C55.48,51.981 55.18,52.492 54.865,53.033C54.544,52.835 54.273,52.667 53.886,52.43C56.516,47.868 59.149,43.302 61.81,38.686C59.129,34.039 56.509,29.498 53.888,24.954C54.24,24.738 54.519,24.567 54.852,24.363C55.044,24.68 55.241,24.99 55.426,25.309C57.699,29.244 59.989,33.168 62.226,37.124C62.645,37.865 63.095,38.161 63.967,38.151C68.399,38.104 72.834,38.128 77.268,38.128L78.672,38.128ZM161.645,39.268L175.17,39.243C175.99,39.236 176.431,39.51 176.828,40.212C179.106,44.23 181.431,48.221 183.744,52.221C183.903,52.497 184.09,52.759 184.264,53.028C184.598,52.806 184.868,52.628 185.187,52.416C182.534,47.816 179.898,43.244 177.27,38.687C179.942,34.054 182.565,29.508 185.193,24.953C184.836,24.743 184.537,24.567 184.216,24.377C184.029,24.686 183.869,24.935 183.721,25.191C181.429,29.158 179.115,33.112 176.869,37.105C176.42,37.902 175.908,38.158 175.021,38.149C170.588,38.107 166.154,38.129 161.72,38.129L160.38,38.129L160.38,39.268L161.645,39.268ZM284.06,38.129C284.08,38.515 284.094,38.802 284.109,39.148C283.976,39.185 283.843,39.255 283.709,39.256C281.25,39.263 278.791,39.263 276.332,39.263C273.947,39.264 271.561,39.291 269.179,39.247C268.454,39.234 268.043,39.456 267.679,40.1C265.345,44.215 262.965,48.304 260.599,52.401C260.489,52.593 260.367,52.779 260.221,53.013C259.904,52.822 259.61,52.644 259.249,52.426C261.887,47.851 264.508,43.308 267.173,38.688C264.54,34.124 261.9,29.549 259.251,24.956C259.577,24.753 259.851,24.581 260.19,24.369C260.365,24.639 260.552,24.902 260.712,25.181C263.024,29.179 265.348,33.171 267.626,37.189C268.026,37.893 268.477,38.157 269.292,38.15C273.762,38.109 278.234,38.129 282.706,38.129L284.06,38.129ZM253.651,52.433C253.285,52.661 253.038,52.817 252.738,53.005C252.661,52.92 252.55,52.832 252.484,52.718C250.154,48.688 247.839,44.648 245.494,40.625C244.548,39 245.02,39.274 243.194,39.268C238.834,39.254 234.475,39.266 230.116,39.267C229.707,39.268 229.3,39.267 228.839,39.267L228.839,38.128L230.157,38.128C234.591,38.129 239.026,38.099 243.458,38.155C244.416,38.166 244.91,37.836 245.368,37.022C247.598,33.063 249.895,29.14 252.167,25.205C252.316,24.949 252.473,24.698 252.669,24.374C252.983,24.558 253.281,24.733 253.649,24.95C251.023,29.501 248.402,34.043 245.723,38.686C248.346,43.234 250.984,47.806 253.651,52.433ZM62.462,39.227C62.655,39.002 62.882,38.853 62.878,38.712C62.874,38.563 62.651,38.312 62.517,38.307C62.376,38.301 62.131,38.519 62.107,38.667C62.083,38.804 62.294,38.979 62.462,39.227ZM245.595,38.717C245.364,38.524 245.213,38.3 245.067,38.303C244.918,38.306 244.775,38.532 244.628,38.66C244.758,38.804 244.873,39.046 245.019,39.066C245.164,39.085 245.339,38.882 245.595,38.717ZM40.229,38.72C40.002,38.527 39.853,38.303 39.705,38.303C39.558,38.303 39.412,38.531 39.265,38.659C39.393,38.803 39.508,39.045 39.654,39.066C39.798,39.086 39.975,38.884 40.229,38.72ZM177.14,38.658C176.886,38.49 176.71,38.283 176.564,38.303C176.418,38.321 176.302,38.566 176.172,38.712C176.318,38.838 176.461,39.061 176.612,39.066C176.756,39.07 176.908,38.849 177.14,38.658ZM131.498,38.719C131.269,38.526 131.118,38.3 130.976,38.304C130.824,38.309 130.681,38.532 130.533,38.66C130.662,38.804 130.778,39.043 130.925,39.064C131.068,39.085 131.243,38.883 131.498,38.719ZM199.953,38.657C199.699,38.49 199.523,38.283 199.381,38.304C199.231,38.326 199.116,38.567 198.985,38.712C199.132,38.839 199.275,39.059 199.426,39.064C199.569,39.069 199.721,38.848 199.953,38.657ZM268.408,38.656C268.151,38.488 267.975,38.282 267.835,38.304C267.686,38.328 267.57,38.568 267.44,38.713C267.587,38.839 267.731,39.059 267.882,39.064C268.026,39.069 268.176,38.847 268.408,38.656ZM108.164,38.142C107.97,38.366 107.743,38.513 107.745,38.657C107.747,38.804 107.969,39.057 108.103,39.063C108.245,39.071 108.497,38.855 108.519,38.71C108.54,38.569 108.332,38.392 108.164,38.142ZM127.531,19.524L140.724,19.497C141.734,19.482 142.242,19.832 142.718,20.68C144.756,24.32 146.867,27.92 148.953,31.534C149.286,32.112 149.626,32.686 149.984,33.298C150.332,33.081 150.626,32.899 150.959,32.693C148.298,28.077 145.66,23.502 143.032,18.945C145.716,14.289 148.351,9.719 150.986,5.148C150.591,4.931 150.314,4.777 149.994,4.602C149.777,4.961 149.56,5.306 149.357,5.658C147.178,9.433 145.014,13.217 142.817,16.981C141.854,18.632 142.384,18.343 140.414,18.351C135.793,18.368 131.173,18.357 126.552,18.361C126.414,18.361 126.277,18.404 126.154,18.424L126.154,19.524L127.531,19.524ZM58.964,19.525L72.266,19.496C73.277,19.482 73.787,19.83 74.262,20.679C76.34,24.383 78.487,28.048 80.611,31.725C80.906,32.239 81.209,32.749 81.527,33.292C81.854,33.099 82.13,32.936 82.515,32.709C79.844,28.078 77.206,23.503 74.577,18.946C77.26,14.29 79.896,9.72 82.531,5.149C82.135,4.931 81.857,4.777 81.541,4.602C81.323,4.961 81.106,5.305 80.902,5.657C78.723,9.432 76.56,13.216 74.362,16.98C73.399,18.63 73.933,18.343 71.961,18.35C67.341,18.368 62.718,18.357 58.097,18.361C57.961,18.361 57.824,18.404 57.698,18.424L57.698,19.525L58.964,19.525ZM111.644,18.356L98.564,18.351C96.703,18.345 97.206,18.583 96.324,17.091C94.996,14.845 93.714,12.574 92.41,10.315C91.313,8.414 90.212,6.515 89.097,4.588C88.772,4.768 88.495,4.921 88.09,5.146C90.764,9.785 93.401,14.359 96.047,18.947C93.38,23.571 90.746,28.139 88.113,32.705C88.487,32.929 88.762,33.094 89.079,33.285C89.285,32.947 89.484,32.636 89.669,32.317C91.925,28.414 94.205,24.525 96.411,20.594C96.88,19.759 97.406,19.482 98.344,19.501C101.249,19.564 104.157,19.526 107.063,19.524C108.889,19.523 110.716,19.52 112.542,19.509C112.676,19.509 112.809,19.443 112.923,19.413L112.923,18.356L111.644,18.356ZM164.503,18.945C161.823,14.3 159.201,9.754 156.56,5.178C156.889,4.974 157.16,4.805 157.477,4.608C157.554,4.695 157.665,4.785 157.732,4.901C159.99,8.803 162.243,12.708 164.497,16.613C164.72,17 164.962,17.378 165.162,17.777C165.367,18.188 165.647,18.412 166.128,18.36C166.385,18.332 166.65,18.356 166.911,18.356L181.379,18.356L181.379,19.414C181.261,19.445 181.127,19.509 180.991,19.51C179.016,19.52 177.041,19.523 175.066,19.524C172.271,19.526 169.475,19.557 166.681,19.505C165.832,19.489 165.348,19.737 164.919,20.5C162.67,24.493 160.357,28.449 158.064,32.417C157.898,32.704 157.716,32.981 157.529,33.283C157.215,33.094 156.94,32.928 156.567,32.703C159.201,28.137 161.836,23.568 164.503,18.945ZM264.409,19.524L277.824,19.505C278.638,19.498 279.095,19.756 279.495,20.461C281.773,24.48 284.098,28.473 286.41,32.472C286.57,32.751 286.759,33.014 286.933,33.283C287.272,33.07 287.548,32.899 287.872,32.697C285.221,28.101 282.58,23.524 279.939,18.946C282.612,14.311 285.249,9.738 287.885,5.168C287.514,4.948 287.237,4.784 286.902,4.585C286.659,4.998 286.412,5.41 286.172,5.826C283.955,9.665 281.719,13.494 279.538,17.354C279.122,18.091 278.678,18.39 277.801,18.38C273.293,18.328 268.782,18.355 264.274,18.355L263.049,18.355L263.049,19.524L264.409,19.524ZM195.969,19.525L209.384,19.505C210.202,19.497 210.65,19.773 211.048,20.474C213.326,24.492 215.65,28.485 217.962,32.484C218.121,32.76 218.311,33.018 218.485,33.282C218.827,33.066 219.1,32.894 219.416,32.695C216.76,28.09 214.12,23.513 211.486,18.946C214.164,14.301 216.8,9.728 219.437,5.156C219.053,4.941 218.774,4.784 218.436,4.595C218.194,5.008 217.951,5.423 217.71,5.839C215.475,9.71 213.225,13.574 211.02,17.462C210.642,18.129 210.218,18.38 209.444,18.374C204.898,18.337 200.352,18.356 195.805,18.356L194.6,18.356L194.6,19.525L195.969,19.525ZM225.994,33.279C225.68,33.096 225.405,32.936 225.018,32.711C227.65,28.146 230.284,23.58 232.956,18.946C230.316,14.368 227.678,9.795 225.014,5.177C225.356,4.968 225.649,4.789 225.997,4.577C227.114,6.504 228.214,8.403 229.312,10.304C230.71,12.723 232.126,15.133 233.488,17.572C233.825,18.175 234.221,18.375 234.9,18.37C239.446,18.343 243.992,18.356 248.539,18.356L249.824,18.356L249.824,19.386C249.762,19.413 249.671,19.489 249.575,19.494C249.165,19.515 248.756,19.524 248.346,19.524C243.949,19.526 239.551,19.554 235.154,19.501C234.238,19.491 233.766,19.814 233.331,20.584C231.113,24.51 228.841,28.403 226.585,32.305C226.4,32.625 226.202,32.937 225.994,33.279ZM44.456,19.524L44.456,18.356C43.98,18.356 43.572,18.355 43.163,18.356C38.653,18.356 34.144,18.337 29.636,18.374C28.864,18.38 28.439,18.133 28.06,17.465C25.838,13.543 23.569,9.647 21.315,5.743C21.094,5.359 20.866,4.978 20.632,4.579C20.281,4.795 19.987,4.975 19.653,5.18C22.306,9.778 24.929,14.324 27.594,18.946C24.925,23.572 22.303,28.118 19.66,32.698C20.004,32.903 20.301,33.08 20.631,33.277C20.826,32.957 21.006,32.677 21.172,32.389C23.464,28.422 25.77,24.462 28.03,20.475C28.428,19.774 28.874,19.498 29.692,19.505C34.164,19.545 38.637,19.524 43.108,19.524L44.456,19.524ZM233.658,19.512C233.831,19.255 234.042,19.078 234.026,18.926C234.011,18.782 233.749,18.556 233.608,18.566C233.467,18.574 233.238,18.825 233.236,18.974C233.233,19.124 233.462,19.278 233.658,19.512ZM73.862,18.392C73.694,18.649 73.483,18.831 73.508,18.971C73.536,19.125 73.78,19.241 73.929,19.374C74.062,19.223 74.293,19.075 74.299,18.918C74.303,18.775 74.067,18.623 73.862,18.392ZM5.48,18.391C5.28,18.623 5.045,18.778 5.052,18.92C5.06,19.077 5.29,19.223 5.422,19.373C5.572,19.24 5.817,19.122 5.843,18.969C5.867,18.829 5.653,18.648 5.48,18.391ZM279.833,18.976C279.597,18.781 279.441,18.555 279.294,18.559C279.141,18.563 278.992,18.79 278.842,18.919C278.974,19.071 279.091,19.321 279.243,19.345C279.388,19.367 279.569,19.152 279.833,18.976ZM211.374,18.909C211.115,18.743 210.935,18.539 210.786,18.559C210.639,18.579 210.407,18.84 210.421,18.971C210.437,19.119 210.688,19.343 210.839,19.344C210.989,19.345 211.141,19.112 211.374,18.909ZM142.923,18.914C142.664,18.747 142.486,18.541 142.336,18.56C142.188,18.579 141.954,18.837 141.968,18.968C141.984,19.116 142.232,19.342 142.382,19.344C142.532,19.347 142.687,19.115 142.923,18.914ZM165.737,18.906C165.478,18.742 165.298,18.537 165.152,18.56C165.001,18.584 164.883,18.828 164.752,18.976C164.902,19.108 165.051,19.342 165.202,19.343C165.351,19.343 165.503,19.11 165.737,18.906ZM28.827,18.904C28.571,18.743 28.39,18.539 28.241,18.561C28.091,18.583 27.973,18.829 27.843,18.977C27.993,19.109 28.143,19.342 28.295,19.342C28.444,19.343 28.595,19.109 28.827,18.904ZM97.283,18.905C97.025,18.742 96.843,18.537 96.697,18.56C96.546,18.584 96.429,18.828 96.298,18.976C96.448,19.108 96.597,19.342 96.749,19.342C96.897,19.343 97.049,19.11 97.283,18.905Z" style="fill:white;"/>
</svg>
